<?xml version="1.0" encoding="utf-8"?>
<!-- Generator: Adobe Illustrator 16.0.3, SVG Export Plug-In . SVG Version: 6.00 Build 0)  -->
<!DOCTYPE svg PUBLIC "-//W3C//DTD SVG 1.1//EN" "http://www.w3.org/Graphics/SVG/1.1/DTD/svg11.dtd">
<svg version="1.1" id="Layer_1" xmlns="http://www.w3.org/2000/svg" xmlns:xlink="http://www.w3.org/1999/xlink" x="0px" y="0px"
	 width="136.00049px" height="85px" viewBox="0 0 136.00049 85" enable-background="new 0 0 136.00049 85" xml:space="preserve">
<path fill-rule="evenodd" clip-rule="evenodd" fill="#0D3174" d="M112.13623,28.46387h-0.00195
	c-0.0127-0.00293-0.02441-0.00293-0.03516-0.00293c-0.03027,0.00098-0.05762,0.00977-0.08105,0.02539
	c-0.03418,0.02441-0.05762,0.05762-0.06641,0.09766v0.00293c-0.00391,0.01562-0.00488,0.03223-0.00293,0.04785
	c0.00293,0.02344,0.0127,0.04688,0.02637,0.06836c0.02246,0.03418,0.05566,0.05859,0.0957,0.06543l0,0h0.00586l0.00195,0.00098
	c0.03906,0.00684,0.0791-0.00293,0.1123-0.02344c0.02051-0.01465,0.03711-0.03223,0.04883-0.05469
	c0.00879-0.0127,0.01465-0.02637,0.01758-0.04102v-0.00391c0.00781-0.04199-0.00098-0.08301-0.02441-0.11719
	c-0.01562-0.02246-0.03809-0.04297-0.06348-0.05469C112.15771,28.4707,112.14697,28.4668,112.13623,28.46387 M117.07178,24.84473
	l0.00195,0.00195l0.05273,0.0791l-0.00586,0.00391c0.01953,0.0166,0.04492,0.03027,0.07227,0.03613h0.00195
	c0.04102,0.00781,0.08203-0.00098,0.11719-0.02344c0.01465-0.00879,0.02734-0.02344,0.03711-0.03711
	c0.01465-0.01758,0.02441-0.03906,0.02832-0.05859v-0.00293c0.00781-0.04102,0-0.08203-0.02344-0.11816
	c-0.02246-0.0332-0.05762-0.05762-0.0957-0.06543h-0.00391c-0.04004-0.00781-0.08301,0-0.11621,0.02441
	c-0.03418,0.02148-0.05664,0.05664-0.06543,0.09766l0,0C117.06885,24.80273,117.06885,24.82324,117.07178,24.84473z
	 M107.73389,35.08691v-0.00098l-0.00293-0.00391c-0.02246-0.03418-0.05762-0.05762-0.0957-0.06445l-0.00391-0.00098
	c-0.03906-0.00781-0.08203,0.00098-0.11621,0.02344c-0.0332,0.02441-0.05762,0.05762-0.06445,0.09668v0.00391
	c-0.00879,0.04004,0,0.08203,0.02148,0.11426c0.02344,0.03516,0.05859,0.05957,0.09668,0.06641l0.00391,0.00098
	c0.04004,0.00781,0.08203-0.00098,0.11719-0.02344c0.03223-0.02344,0.05664-0.05762,0.06445-0.0957V35.2002
	C107.76221,35.16016,107.75439,35.12012,107.73389,35.08691z M111.10596,34.06836c0.00781-0.04004,0-0.08008-0.02344-0.11328
	c-0.02148-0.03613-0.05762-0.05762-0.09473-0.06543l-0.00391-0.00195c-0.04102-0.00781-0.08301,0.00293-0.11719,0.02344
	c-0.02734,0.02051-0.04883,0.04785-0.06055,0.08008l-0.00781,0.04102c-0.00195,0.03418,0.00781,0.06738,0.02539,0.0957
	c0.00586,0.00684,0.00977,0.01367,0.0166,0.01953c0.02051,0.02246,0.05078,0.04004,0.08496,0.04688l0,0
	c0.03027,0.00586,0.06445,0.00195,0.09473-0.01172c0.00684-0.00391,0.0127-0.00879,0.01953-0.0127
	c0.03516-0.02148,0.05957-0.05664,0.06641-0.09473l0,0v-0.00391V34.06836z M110.25439,35.26367l0.01074,0.01367l-0.04883,0.0332
	l-0.04883,0.03223l-0.01172-0.01953c-0.01367,0.01855-0.02246,0.03906-0.02832,0.06055v0.00293
	c-0.00781,0.04102,0,0.08301,0.02441,0.11523c0.02344,0.03516,0.05664,0.06055,0.09961,0.06738h-0.00098
	c0.04102,0.00781,0.08301,0,0.11621-0.02344c0.03516-0.02344,0.05957-0.05762,0.06738-0.0957v-0.00293
	c0.00781-0.04199,0-0.08301-0.02344-0.11816c-0.02344-0.03418-0.05664-0.05664-0.09668-0.06445h0.00098h-0.00195l-0.00195-0.00098
	C110.2915,35.25977,110.27393,35.25977,110.25439,35.26367z M93.55225,35.39648h-0.00195
	c-0.01172-0.00293-0.02441-0.00391-0.03613-0.00391c-0.02832,0.00195-0.05664,0.01074-0.08105,0.02637
	c-0.0332,0.02246-0.05664,0.05762-0.06445,0.0957l0,0v0.00195v0.00195c-0.00391,0.01562-0.00391,0.03223-0.00195,0.04785
	c0.00195,0.02539,0.01172,0.04785,0.02539,0.06934c0.02246,0.03223,0.05664,0.05664,0.09473,0.06445l0,0h0.00781l0.00098,0.00195
	c0.03906,0.00586,0.0791-0.00293,0.11133-0.02539c0.02051-0.01367,0.03809-0.03125,0.05078-0.05273
	c0.00781-0.01465,0.0127-0.02832,0.01562-0.04297v-0.00391c0.00781-0.04004,0-0.08203-0.02344-0.11621
	c-0.0166-0.02344-0.03906-0.04297-0.06348-0.05566C93.57568,35.40234,93.56396,35.39844,93.55225,35.39648z M114.46045,27.23535
	l-1.21289-0.23926l-0.09766-0.14551l-0.03223-0.0459l-0.19336-0.29102l-0.2373-0.04688
	c-0.04492,0.09473-0.15039,0.14746-0.25293,0.12695c-0.12598-0.02441-0.20898-0.14746-0.18262-0.27344
	c0.02246-0.125,0.14551-0.20801,0.27148-0.18164c0.10547,0.01953,0.18164,0.1084,0.1875,0.21387l0.2832,0.05566l0.0127,0.02051
	l0.25293,0.37598l0.03125,0.04785l0.02637,0.03906l1.21191,0.23926l0.26562,0.39453l0.03223,0.04785l1.45215,0.28711l0.21387-0.1543
	c-0.0166-0.04102-0.02148-0.08691-0.0127-0.13086c0.00684-0.02734,0.0166-0.05566,0.03223-0.08105
	c0.00879-0.0127,0.01953-0.02539,0.03125-0.03711c0.05371-0.05566,0.13184-0.0791,0.20898-0.06348
	c0.07812,0.01465,0.14062,0.06738,0.16992,0.1377c0.00586,0.0166,0.01074,0.03223,0.01367,0.04785
	c0.00586,0.02832,0.00586,0.05762-0.00098,0.08789c-0.02344,0.125-0.14648,0.20703-0.27148,0.18164
	c-0.03906-0.00684-0.07422-0.02441-0.10449-0.04785l-0.23242,0.16992l-0.02148,0.01367l-0.02441-0.00391l-1.52344-0.30176
	l-0.01367-0.02051L114.46045,27.23535z M113.12646,30.66113l-0.22461-0.31934l0.17383-0.88086l-0.49219-0.70117l-0.22656-0.0459
	c-0.00098,0.00391-0.00195,0.00781-0.00391,0.01074c-0.01953,0.04785-0.05371,0.08789-0.09668,0.11816
	c-0.06152,0.03906-0.13477,0.05469-0.20312,0.04102l-0.00195-0.00098c-0.07129-0.01465-0.13184-0.05469-0.17285-0.11621
	c-0.02832-0.04199-0.04395-0.0918-0.04688-0.14453c0-0.01953,0.00293-0.03613,0.00586-0.05371l0.00098-0.00488
	c0.01367-0.06543,0.04883-0.125,0.10254-0.16504c0.00391-0.00293,0.00781-0.00488,0.01074-0.00684
	c0.06152-0.04199,0.13477-0.05469,0.2041-0.04199h0.00195c0.07031,0.01367,0.13281,0.05566,0.17188,0.11523
	c0.00293,0.00391,0.00586,0.00781,0.00879,0.01172c0.02051,0.03711,0.03516,0.0791,0.03711,0.12207l0.27441,0.05566l0.54883,0.7793
	l-0.17383,0.88184l0.19629,0.27734c0.04102-0.01465,0.08496-0.01758,0.12598-0.00879
	c0.12695,0.02344,0.20801,0.14551,0.18359,0.27148c-0.00391,0.02051-0.01172,0.04004-0.01855,0.06055
	c-0.04785,0.0918-0.15332,0.14355-0.25293,0.12305c-0.10352-0.02148-0.17969-0.10742-0.18848-0.20996
	c-0.00195-0.02246,0-0.04199,0.00391-0.06445C113.0835,30.72656,113.1001,30.68945,113.12646,30.66113z M115.88232,25.85742
	c-0.01367-0.03906-0.0166-0.08105-0.00879-0.12207c0.02539-0.12598,0.14746-0.20801,0.27246-0.18262
	c0.12598,0.02441,0.20703,0.14648,0.18457,0.27344c-0.02637,0.12402-0.14941,0.20703-0.27344,0.18262
	c-0.04199-0.00879-0.0791-0.02637-0.11035-0.05469l-0.16602,0.1123l-0.02051,0.0127l-0.02246-0.00391l-1.32031-0.26074
	l-0.80762-1.20508l-0.65527-0.12891l-1.14844,0.76855l-0.02051,0.01465l-0.37988-0.0752l-0.38965,0.25977
	c0.0127,0.03906,0.0166,0.08105,0.00879,0.12207c-0.02539,0.125-0.14844,0.20703-0.27344,0.18262
	c-0.12598-0.02539-0.20801-0.14648-0.18262-0.27246c0.02539-0.125,0.14746-0.20703,0.27344-0.18359
	c0.04102,0.00879,0.0791,0.02734,0.1084,0.05566l0.41016-0.27539l0.02051-0.01367l0.38086,0.0752l1.16797-0.78223l0.74902,0.14746
	l0.01367,0.02148l0.04102,0.05957l0.75391,1.12402l1.24805,0.24707L115.88232,25.85742z M115.72119,26.32715l0.12207,0.02539
	l0.69434-0.4668l0.16113-0.81445l0.02051-0.0127l0.24512-0.16504c-0.00488-0.01855-0.00781-0.03516-0.00977-0.05371
	c-0.00293-0.02539-0.00195-0.05273,0.00391-0.07617v-0.00391c0.01367-0.06934,0.05469-0.13281,0.11523-0.17285
	c0.04492-0.0293,0.09766-0.04688,0.15234-0.0459c0.01758,0,0.03418,0.00098,0.05078,0.00391h0.00195
	c0.01562,0.00488,0.0332,0.00977,0.04785,0.0166c0.05078,0.01953,0.09375,0.05469,0.12402,0.09961
	c0.04004,0.06055,0.05469,0.13281,0.04199,0.20117l0,0v0.00098l-0.00098,0.00293c-0.00488,0.02734-0.01562,0.05176-0.02734,0.07617
	c-0.02148,0.03809-0.05078,0.07227-0.08789,0.09473c-0.01855,0.01465-0.04102,0.02441-0.06152,0.03223
	c-0.04688,0.01562-0.0957,0.01953-0.14258,0.00977h-0.00098c-0.04688-0.00977-0.09082-0.03125-0.12793-0.0625
	c-0.00684-0.00586-0.01367-0.01465-0.02051-0.02246l-0.14746,0.09961l-0.07129,0.04688l-0.15625,0.79199l-0.00586,0.02246
	l-0.01953,0.01367l-0.73535,0.49316l-0.01953,0.0127l-0.16797-0.03418c-0.04492,0.09473-0.15039,0.14941-0.25488,0.12891
	c-0.12402-0.02539-0.20703-0.14746-0.18262-0.27246c0.02441-0.12598,0.14746-0.20801,0.27344-0.18457
	C115.64014,26.13379,115.71533,26.22266,115.72119,26.32715z M107.40283,34.98535l-0.0957-0.14258l-0.01367-0.02148l-0.0127-0.02051
	l0.13965-0.70508l-0.30273-0.45215l0.00391-0.02441l0.20703-1.04395l0.01465-0.07715l0.02734-0.13672l0.37793,0.5625
	l-0.00586,0.02344l-0.0752,0.38281l0.2998,0.44727l0.95508,0.18945l0.02441,0.00391l0.0127,0.02051l0.1416,0.20898l0.6123,0.12207
	l0.64062-0.42773l0.01855-0.01465l0.02441,0.00488l0.30176,0.06055c0.02051-0.05273,0.05762-0.09863,0.10352-0.12891
	c0.05859-0.04004,0.13086-0.05566,0.19922-0.04297h0.00195l0.00488,0.00195c0.07031,0.01367,0.13184,0.05469,0.17188,0.11523
	c0.03906,0.05859,0.05469,0.13184,0.04102,0.2002l0,0v0.00195v0.00293c-0.0127,0.05176-0.03711,0.09961-0.0752,0.13867
	c-0.01172,0.01074-0.02637,0.02246-0.04004,0.0332c-0.06055,0.04004-0.13379,0.05469-0.20312,0.04102l-0.00195-0.00098
	c-0.07129-0.01465-0.13184-0.05664-0.17188-0.11523c-0.00977-0.01367-0.02051-0.03027-0.02637-0.0459
	c-0.01172-0.02832-0.01758-0.05762-0.01855-0.08594l-0.28516-0.05762l-0.66016,0.44238l-0.02441-0.00391l-0.68457-0.13574
	l-0.0127-0.02051l-0.1416-0.20996l-0.9541-0.18848l-0.02344-0.00488l-0.01367-0.01953l-0.20898-0.3125l-0.11719-0.1748
	l-0.01367-0.01953l0.0791-0.40625l-0.13965-0.20996l-0.05371-0.08008l-0.15723,0.79785l-0.03223,0.16211l0.30176,0.45117
	l-0.00391,0.02246l-0.13477,0.68457l0.09375,0.13965c0.04883-0.01855,0.10352-0.02441,0.1543-0.01367l0.00391,0.00098
	c0.07031,0.0127,0.13184,0.05371,0.17188,0.11426c0.04004,0.05859,0.05469,0.13281,0.04102,0.2041v0.00098
	c-0.01367,0.06934-0.05469,0.13184-0.11523,0.17285c-0.05957,0.03906-0.13184,0.05371-0.20117,0.04004h-0.00391
	c-0.07031-0.01562-0.13184-0.05566-0.17188-0.11621c-0.04004-0.05859-0.05469-0.13184-0.04102-0.2002v-0.00391
	C107.34521,35.06738,107.36963,35.02148,107.40283,34.98535z M110.01416,35.36914l0.00098-0.00586
	c0.01074-0.05176,0.03613-0.10156,0.07324-0.13867l-0.38379-0.57227l-0.48242-0.0957l-0.19727,0.13184l-0.10059,0.06641
	c0.01465,0.03906,0.01855,0.08105,0.00977,0.12207c-0.02539,0.125-0.14844,0.20703-0.27344,0.18359
	c-0.12598-0.02539-0.20898-0.14844-0.18262-0.27344c0.02441-0.12695,0.14648-0.20801,0.27246-0.18359
	c0.04102,0.00781,0.0791,0.02734,0.11035,0.05469l0.33594-0.22461l0.02441,0.00391l0.53125,0.10449l0.02344,0.00488l0.01172,0.02148
	l0.40039,0.59277c0.04492-0.01562,0.0957-0.01953,0.14355-0.01074l0.00293,0.00098c0.07031,0.0127,0.13184,0.05469,0.17285,0.11426
	c0.04004,0.05859,0.05371,0.13281,0.04004,0.20215v0.00391c-0.01465,0.06836-0.05566,0.12988-0.11426,0.1709
	c-0.06055,0.04004-0.13281,0.05371-0.2041,0.04004h-0.00195c-0.06934-0.01465-0.13086-0.05566-0.17188-0.11426
	C110.01611,35.51074,110.00146,35.4375,110.01416,35.36914z M94.54248,37.5918l-0.22266-0.31836l0.05273-0.27246l0.12109-0.6084
	l-0.49414-0.70215l-0.22656-0.04297c-0.00098,0.00195-0.00195,0.00488-0.00391,0.00781
	c-0.01953,0.04883-0.05371,0.08887-0.0957,0.11816c-0.06055,0.04004-0.13379,0.05469-0.2041,0.04199h-0.00195
	c-0.07129-0.01367-0.13184-0.05566-0.17188-0.11523c-0.03027-0.04395-0.04492-0.09473-0.0459-0.14648
	c0-0.01758,0.00098-0.03516,0.00391-0.05371h-0.00098l0.00195-0.00586c0.0127-0.06543,0.05078-0.12402,0.10352-0.16406
	c0.00293-0.00293,0.00781-0.00586,0.01172-0.00781c0.05957-0.04004,0.13379-0.05469,0.20312-0.04102h0.00195
	c0.07031,0.01367,0.13184,0.05469,0.17188,0.11523c0.00293,0.00391,0.00586,0.00684,0.00781,0.01172
	c0.02148,0.03711,0.03516,0.0791,0.03711,0.12207l0.27441,0.05469l0.5498,0.78125l-0.01953,0.09473l-0.15527,0.78516l0.19629,0.2793
	c0.04102-0.01465,0.08496-0.01855,0.12695-0.01074c0.12598,0.02441,0.20801,0.14746,0.18359,0.27246
	c-0.00391,0.02148-0.01172,0.04004-0.02051,0.05957c-0.0459,0.09277-0.15039,0.14355-0.25293,0.125
	c-0.10156-0.02148-0.17871-0.10742-0.18555-0.21191c-0.00195-0.02148-0.00098-0.04102,0.00293-0.06152
	C94.49951,37.6582,94.51611,37.62207,94.54248,37.5918z M85.94385,41.39844c-0.07324,0.07227-0.14746,0.14648-0.21973,0.21777
	c0.01953,0.0127,0.04004,0.02246,0.06445,0.02637l0,0c0.02832,0.00684,0.05859,0.00391,0.08594-0.00781h-0.00098l0.05762-0.03809
	c0.02051-0.02051,0.0332-0.04688,0.03809-0.07422l0.00098-0.00586v-0.00195c0.00098-0.00391,0.00195-0.00781,0.00195-0.01367
	c0.00195-0.03418-0.00586-0.06738-0.02441-0.0957L85.94385,41.39844z M86.72412,40.63867l-0.02539,0.02441
	c0.00586-0.00098,0.0127-0.00195,0.02051-0.00195L86.72412,40.63867z M98.69482,31.42676
	c-0.02441,0.0166-0.0459,0.03125-0.06934,0.04688c0.00586-0.00098,0.0127-0.00098,0.01855-0.00098
	c0.01562,0,0.0332,0.00195,0.0498,0.00488l0.00195,0.00098h0.00098c0.01367,0.00195,0.02637,0.00684,0.03906,0.01172
	L98.69482,31.42676z M103.39795,28.51953l-0.06348,0.03809l0.00684,0.00098L103.39795,28.51953z M108.29541,25.77539
	l-0.0625,0.03516l0.02246,0.03418l0.01367,0.01953l-0.02832,0.14062c0.0498,0.01953,0.09277,0.05469,0.12402,0.10059
	c0.03418,0.04883,0.0498,0.10938,0.04492,0.16895c-0.00098,0.01172-0.00293,0.02246-0.00488,0.03418v0.00195v0.00098
	c-0.01172,0.05371-0.03906,0.10254-0.0791,0.14062c-0.01074,0.01074-0.02344,0.02051-0.03613,0.02832
	c-0.02051,0.01465-0.04395,0.02637-0.06738,0.03418c-0.01562,0.00488-0.03027,0.00781-0.04785,0.00977
	c-0.02832,0.00391-0.05762,0.00293-0.08984-0.00293l0,0c-0.02832-0.00488-0.05566-0.01465-0.08203-0.03125
	c-0.01367-0.00781-0.02637-0.0166-0.04004-0.02734c-0.01758-0.0166-0.03516-0.03418-0.0498-0.05566
	c-0.00781-0.0127-0.01562-0.02637-0.02148-0.04199c-0.02344-0.05078-0.0293-0.10547-0.01953-0.16309v-0.00293h0.00098
	c0.00195-0.00977,0.00391-0.01855,0.00781-0.02832c0.01855-0.05859,0.05664-0.10742,0.10742-0.1416
	c0.04199-0.02734,0.08887-0.04297,0.1377-0.04492l0.02051-0.09473l-0.01758-0.02539c-0.32031,0.1709-0.64062,0.3457-0.96094,0.51953
	l2.74121,0.54199c-0.00977-0.00781-0.01855-0.0166-0.02832-0.02637c-0.00977-0.01074-0.02051-0.02344-0.02832-0.03613
	c-0.00195-0.00488-0.00586-0.00977-0.00781-0.0127c-0.00488-0.00781-0.00879-0.01562-0.0127-0.02344
	c-0.0127-0.02734-0.02148-0.05664-0.02344-0.08789c-0.00391-0.02539-0.00195-0.05273,0.00195-0.0791l0.00098-0.00195
	l0.00098-0.00195c0.00684-0.03613,0.02148-0.06934,0.04395-0.10059c0.00684-0.0127,0.01758-0.02539,0.0293-0.03516l-0.1123-0.18945
	l-1.27344-0.25195l-0.11523-0.16992l-0.03027-0.04785L108.29541,25.77539z M108.47412,25.68262l-0.0752,0.03906l0.0957,0.1416
	l0.03125,0.0459l0.04297,0.06543l0.81836,0.16211c-0.0127-0.01172-0.02441-0.02246-0.0332-0.03516
	c-0.00586-0.00586-0.0127-0.0127-0.0166-0.02051c-0.00586-0.00977-0.01172-0.01953-0.01758-0.0293
	c-0.01758-0.03516-0.02832-0.07617-0.0293-0.11621l-0.74707-0.14844L108.47412,25.68262z M111.23096,24.25684
	c-0.57129,0.28613-1.13965,0.57715-1.70703,0.87109l0.80371,0.15918l0.86523-0.58008l0.02051-0.0127l0.37598,0.0752l0.23828-0.16016
	l-0.18066-0.26953L111.23096,24.25684z M112.35498,23.69922c-0.125,0.06152-0.25195,0.12402-0.37695,0.18652l0.46973,0.09277
	c-0.00879-0.00781-0.0166-0.0166-0.02441-0.02441c-0.01074-0.00977-0.02051-0.02246-0.03027-0.03613
	c-0.01172-0.0166-0.02051-0.03711-0.02832-0.05566c-0.0166-0.04785-0.02148-0.09766-0.01172-0.15137v0.00098
	C112.35303,23.70703,112.354,23.70312,112.35498,23.69922z M116.83545,21.60938c-1.06934,0.47363-2.14062,0.96582-3.20898,1.47559
	l0.41895,0.08203l0.01367,0.02148l0.5332,0.79395l0.72852,0.14355l1.30762-0.87695l0.02441,0.00586l0.37695,0.07422l0.1084-0.09375
	c-0.02148-0.04492-0.0293-0.09863-0.01953-0.14844c0.00781-0.03809,0.02344-0.07031,0.04688-0.10059
	c0.05469-0.06738,0.1416-0.09961,0.22559-0.08203c0.00684,0.00098,0.0127,0.00293,0.01758,0.00391
	c0.03809-0.0332,0.08691-0.05176,0.13672-0.05566l0.0293-0.14355l-0.20801-0.30957
	c-0.03906,0.01367-0.08203,0.01758-0.12305,0.00879c-0.12695-0.02539-0.20801-0.14746-0.18359-0.27344
	c0.00879-0.04102,0.02637-0.08008,0.05566-0.10938L116.83545,21.60938z M123.00537,19.08887
	c-0.15137,0.05469-0.30273,0.11328-0.45312,0.16992l0.0166,0.02637l0.0459,0.06836l1.34277,0.26562l0.35645-0.23926
	l-1.25879-0.24902l-0.02441-0.00391L123.00537,19.08887z M126.92334,17.72168l-0.01758,0.00586l0.02539,0.00488
	c-0.00195-0.00195-0.00195-0.00391-0.00391-0.00488L126.92334,17.72168z M127.30615,17.59863
	c-0.08887,0.0293-0.17773,0.05664-0.26465,0.08496c0.02051,0.02441,0.0498,0.03906,0.08398,0.04492l0,0
	c0.02344,0.00391,0.04883,0.00391,0.07129-0.00391l0.03516-0.02344l0.00391,0.00684c0.00195,0,0.00293-0.00098,0.00391-0.00195
	c0.03418-0.02344,0.05664-0.05859,0.06543-0.10059L127.30615,17.59863z M129.44971,16.95215
	c-0.29297,0.08398-0.58691,0.1709-0.88379,0.25977l0.38379,0.07617l0.05664-0.03809L129.44971,16.95215z M134.07764,15.80762
	c-0.2998,0.06055-0.60254,0.12598-0.90527,0.19434l0.70898,0.13965l0.14648-0.09766c-0.0127-0.04004-0.0166-0.08105-0.00879-0.12305
	C134.02783,15.87793,134.04834,15.83887,134.07764,15.80762z M134.81885,15.9834c0.3916-0.17871,0.78418-0.35742,1.18164-0.5332
	c-0.36719,0.06055-0.74023,0.12598-1.11426,0.19727L134.81885,15.9834z M132.81885,16.93457
	c0.20312-0.10059,0.40723-0.2002,0.61328-0.29785c-0.02637-0.04785-0.03418-0.10352-0.02441-0.15625
	c0.02539-0.125,0.14746-0.20801,0.27344-0.18164c0.07617,0.01465,0.13867,0.06641,0.16895,0.1377
	c0.27734-0.13184,0.55762-0.2627,0.83789-0.39258l0.07422-0.37207c-0.14062,0.02734-0.28125,0.05371-0.42188,0.08105
	c0.09766,0.04297,0.15723,0.14941,0.13477,0.25879c-0.02539,0.125-0.14648,0.20801-0.27344,0.18164
	c-0.04102-0.00781-0.07812-0.02637-0.1084-0.05273l-0.16699,0.11035l-0.02051,0.01367l-0.02344-0.00488l-0.99023-0.19629
	c-0.47168,0.1084-0.9502,0.22266-1.43164,0.34473l0.19824,0.29688L132.81885,16.93457z M132.22803,17.22656
	c0.13867-0.06934,0.2793-0.1377,0.41895-0.20801l-1.05664-0.20898l-0.24902-0.37012
	c-0.14355,0.03711-0.2832,0.07227-0.42676,0.11035l0.22461,0.04297l0.0127,0.02051l0.25293,0.37598l0.03125,0.04785l0.02539,0.03906
	L132.22803,17.22656z M130.56592,18.08691c0.06934-0.03711,0.13867-0.0752,0.20996-0.1123l-1.24316-0.24512l-0.11914,0.08008
	l-0.2959,0.19824l-0.47168,0.31641l-0.01953,0.01367l-0.63965-0.12695l-0.02441-0.00488l-0.01074-0.01758l-0.00195-0.00293
	l-0.11914-0.17578c-0.03906,0.01367-0.08008,0.0166-0.12109,0.00977c-0.12598-0.02539-0.20801-0.14746-0.18262-0.27344
	c0.00684-0.03418,0.02051-0.06738,0.04297-0.09668c0.05371-0.06934,0.1416-0.10352,0.22852-0.08691
	c0.08789,0.01855,0.15723,0.08301,0.18066,0.16797c0.00977,0.03516,0.00977,0.07129,0.00391,0.10547
	c-0.00977,0.04199-0.02734,0.0791-0.05566,0.10938l0.10547,0.15527l0.56934,0.11328l0.88672-0.59277l0.01953-0.01465
	l0.02441,0.00391l1.40527,0.27832c0.37109-0.19434,0.74512-0.38574,1.12012-0.57715l-0.66504-0.12988l-0.09863-0.14648
	l-0.0293-0.0459l-0.19531-0.29102l-0.2373-0.04688c-0.0459,0.0957-0.14941,0.14844-0.25391,0.12695
	c-0.05762-0.01172-0.10938-0.04492-0.14453-0.09277l-0.00391-0.00586c-0.17188,0.0459-0.34277,0.0918-0.51465,0.13867v0.00195
	c0.00586,0.0293,0.00488,0.05957,0,0.08789c-0.02539,0.125-0.14746,0.20801-0.27246,0.18262
	c-0.04102-0.00781-0.0791-0.02637-0.11035-0.05371l-0.53809,0.35938l-0.01953,0.01465l-0.02344-0.00488l-0.625-0.12402
	c-0.29883,0.0918-0.60156,0.18457-0.90234,0.28027v0.00391c0.00098,0.02246-0.00098,0.04199-0.00488,0.0625v0.00195v0.00195
	c-0.01465,0.06836-0.05469,0.12988-0.11523,0.16992c-0.00195,0-0.00293,0.00195-0.00391,0.00195l0.17578,0.26172l0.17676,0.26367
	l0.21094,0.31348l0.66699,0.13184l1.25684-0.84277L130.56592,18.08691z M130.13037,18.31934
	c0.0918-0.04883,0.18262-0.09863,0.27344-0.14648l-0.59082-0.11719l-0.48438,0.3252l-0.09082,0.06152l-0.68457,0.45605
	l-0.76074-0.14941l-0.0127-0.02051l-0.44336-0.66309l-0.14844-0.21973c-0.0293,0.00391-0.05957,0.00195-0.09082-0.00391
	l0.00195,0.00098c-0.00586-0.00098-0.01074-0.00293-0.01562-0.00391l0.73145,1.0918l0.66992,0.13184l0.65625-0.4375l0.2627-0.17676
	l0.29492-0.19727l0.01855-0.01465l0.02441,0.00684L130.13037,18.31934z M127.93115,19.56055
	c0.66797-0.39258,1.34863-0.77734,2.04004-1.15527l-0.22852-0.04395l-1.21484,0.81445l-0.01855,0.01172l-0.02344-0.00488
	l-0.7168-0.14062l-0.02441-0.00488l-0.78906-1.18164l-0.27637-0.05273c-0.59668,0.19434-1.19922,0.39648-1.80273,0.6084
	l2.61035,0.5166l0.02344,0.00488l0.01465,0.02051L127.93115,19.56055z M127.44189,19.85156
	c0.12891-0.07715,0.25879-0.1543,0.38867-0.23047l-0.38867-0.58301l-2.78125-0.55078c-0.0459,0.0166-0.0918,0.03125-0.13477,0.04785
	l2.34473,0.46289L127.44189,19.85156z M127.29736,19.93848l0.04492-0.02734l-0.54297-0.80859l-2.48926-0.49219
	c-0.08203,0.02832-0.16406,0.05957-0.24512,0.08984l2.76953,0.54688L127.29736,19.93848z M126.5376,20.40527
	c0.21777-0.13672,0.43848-0.27344,0.66113-0.40723l-0.43457-0.64648l-2.80859-0.55469l-0.02441-0.00586l-0.02441-0.03418
	c-0.25098,0.09082-0.50195,0.18164-0.75293,0.27539l1.45801,0.28809l-0.45605,0.30664l-0.17383,0.11523l-1.43555-0.2832
	l-0.01465-0.02051l-0.09277-0.13867c-0.20508,0.07812-0.41016,0.15918-0.61523,0.23828l2.50684,0.49609l0.70605-0.47461
	l0.02246,0.00488l1.26367,0.24902l0.02344,0.00586l0.01465,0.02051l0.14941,0.22363l0.07324,0.1084l-0.00488,0.02441
	L126.5376,20.40527z M126.32666,20.53711l0.0752-0.04688l0.05859-0.29199l-0.18262-0.27441l-1.21777-0.24023l-0.70508,0.47266
	l-0.02246-0.00391l-2.71191-0.53613c-0.04199,0.01562-0.08105,0.03027-0.12305,0.04688l2.88867,0.57031l0.68652-0.46094
	l1.05664,0.20898l0.02246,0.00488l0.00488,0.00781l0.20117,0.30078l0.01367,0.01855L126.32666,20.53711z M125.39307,21.13379
	c0.26562-0.17188,0.53027-0.3418,0.79883-0.51074l0.05566-0.28516l-0.16602-0.24707l-0.98438-0.19531l-0.6875,0.46094
	l-0.02344-0.00488l-3.08691-0.60938c-0.06445,0.02441-0.12598,0.05078-0.18848,0.07324l3.91895,0.77539L125.39307,21.13379z
	 M125.05127,21.3623c0.08203-0.05566,0.16504-0.10938,0.24609-0.16211l-0.33691-0.50391l-4.0498-0.80176
	c-0.05957,0.02441-0.12012,0.04785-0.17871,0.07227l4.08594,0.80859l0.25781,0.38281l0.0127,0.01953L125.05127,21.3623z
	 M123.18799,22.6543c0.5-0.3623,1.00781-0.7168,1.52637-1.06543l0.00488-0.04102c0.01953-0.10254,0.10938-0.17969,0.21387-0.18555
	l0.03223-0.15918l-0.21582-0.32422l-4.21777-0.83301c-0.07129,0.0293-0.1416,0.05859-0.21289,0.08691l0.26367,0.38184
	l1.38184,0.27344l0.25684,0.38184l0.86816,0.17188l0.02246,0.00391l0.01367,0.02051l0.20703,0.28418l-0.00488,0.02539
	l-0.05469,0.27539c0.05078,0.01855,0.09473,0.05469,0.12402,0.09961c0.01855,0.02637,0.03027,0.05469,0.03809,0.08203
	c0.00977,0.03906,0.01172,0.07812,0.00488,0.11816l0.00098,0.00195l-0.00195,0.00586
	c-0.00195,0.00684-0.00391,0.01465-0.00586,0.02246c-0.00781,0.02539-0.01953,0.05176-0.03711,0.0752
	c-0.01758,0.02832-0.04395,0.05273-0.07227,0.07227c-0.01855,0.0127-0.03906,0.02344-0.06055,0.0293
	c-0.03027,0.01074-0.06152,0.0166-0.09277,0.0166l-0.02441,0.11816L123.18799,22.6543z M120.9624,24.3623
	c0.69141-0.56152,1.40137-1.10742,2.13184-1.63867l-0.07129-0.10547l0.03418-0.16895
	c-0.02441-0.01172-0.04688-0.02637-0.06738-0.04395c-0.01465-0.0166-0.0293-0.03223-0.04297-0.05078
	c-0.01953-0.02832-0.03418-0.06152-0.04102-0.09473c-0.00586-0.02734-0.00684-0.05566-0.00488-0.08496
	c0.00195-0.00781,0.00293-0.01562,0.00488-0.02637l0,0c0.00879-0.03906,0.02539-0.07715,0.05078-0.11035
	c0.01855-0.02344,0.03906-0.04395,0.06445-0.06055c0.04004-0.02734,0.08887-0.04395,0.13672-0.04688l0.05273-0.25293
	l-0.16406-0.22559l-0.87207-0.17188l-0.02441-0.00488l-0.01172-0.02051l-0.24316-0.36328l-1.38086-0.27148l-0.01367-0.01953
	l-0.29297-0.42285c-0.39258,0.16016-0.78711,0.32227-1.17969,0.4873l0.5625,0.84082l0.15234,0.22754l0.52832,0.78906
	l0.01367,0.01855l-0.00391,0.02441l-0.11914,0.60059l0.6084,0.90918L120.9624,24.3623z M120.64893,24.62012
	c0.0752-0.06055,0.14941-0.12207,0.22266-0.18262l-0.83398-1.24512l0.00488-0.02441l0.11133-0.56543l0.00781-0.03516
	l-1.24414-1.85742c-0.05762,0.02539-0.11621,0.04883-0.1748,0.0752l-0.01758,0.09473l0.24316,0.36523l0.16602,0.24805
	l0.81836,1.22168l-0.00391,0.02441l-0.12793,0.64551l0.00684,0.01074L120.64893,24.62012z M116.26611,28.76172
	c0.02051-0.02148,0.04004-0.04199,0.06055-0.06445l-0.00977-0.00195l-0.375-0.55859l-1.67676-0.33301l-0.35645,0.24023
	l-0.02441-0.00586l-2.49707-0.49316l-0.11914,0.08008l-0.26074,0.1748l-0.03516,0.02246l-0.49121,0.33008l-0.63965-0.12695
	l-0.02539-0.00586l-0.01074-0.01562l-0.00195-0.00293l-0.11719-0.17676c-0.03906,0.01465-0.08105,0.01855-0.12207,0.01074
	c-0.125-0.02637-0.20801-0.14941-0.18359-0.27441c0.00684-0.03516,0.02246-0.06738,0.04395-0.0957
	c0.05371-0.07031,0.14258-0.10449,0.22949-0.08691s0.15625,0.08301,0.17969,0.16797
	c0.00977,0.03516,0.01074,0.07031,0.00293,0.10449c-0.00781,0.04102-0.02637,0.0791-0.05469,0.11035l0.10547,0.15527
	l0.56836,0.11133l0.8877-0.59277l0.01855-0.0127l0.02441,0.00488l2.49707,0.49316l0.2959-0.19922l0.04102-0.02734l0.00586-0.00391
	l0.01562-0.00879l0.02246,0.00391l1.74707,0.34668l0.00781,0.0127l0.36621,0.54785l0.0332,0.00488
	c0.97461-1.04883,2.00781-2.05078,3.09961-3.01172l-0.09375-0.13867l0.2168-1.08691l-0.15332-0.22949l-0.21875-0.3252
	l-0.33203-0.49609l-0.01465-0.02051l0.00391-0.02246l0.00781-0.0332l0.11426-0.58008
	c-0.04492-0.02246-0.08398-0.05371-0.11133-0.09473c-0.03906-0.05957-0.05469-0.13086-0.04102-0.19922l-0.00098-0.00293
	l0.00195-0.00586c0.01367-0.06836,0.05469-0.13086,0.11328-0.16992c0.06152-0.04102,0.13477-0.05566,0.20508-0.04199
	l0.00293,0.00098l0.00098,0.00098c0.06934,0.01465,0.12891,0.05664,0.16895,0.11426c0.04102,0.06055,0.05469,0.13281,0.04102,0.2041
	l0,0c-0.01465,0.07227-0.05566,0.13281-0.11426,0.17188c-0.0459,0.03125-0.09961,0.04688-0.15332,0.04688l-0.11523,0.58594
	l0.58203,0.86816l0.12109,0.18359l0.01367,0.01953l-0.00488,0.02441l-0.20996,1.06445l0.05762,0.08594
	c0.3125-0.27539,0.63086-0.54688,0.95312-0.81348l-0.86133-1.28613l0.13184-0.66895l-0.14551-0.21777l-1.06934-1.59766
	l-0.01367-0.01953l0.0127-0.06738c-0.07031,0.03027-0.13965,0.05957-0.20996,0.08984l-0.00879,0.04297l0.41895,0.62598
	l-0.29199,1.47852l0.42871,0.63965l0.2168,0.3252l0.0957,0.14355l-0.17285,0.87598l-0.01172,0.05566l-0.05664-0.00977
	l-0.46973-0.09277l-0.42773,0.28613l-0.10645,0.54004l-0.00586,0.02246l-0.16504,0.11133
	c0.01465,0.04004,0.0166,0.08105,0.00879,0.12305c-0.02539,0.12402-0.14746,0.20703-0.27344,0.18066
	c-0.125-0.02246-0.20703-0.14551-0.18262-0.27148s0.14746-0.20801,0.27246-0.18262c0.04102,0.00781,0.0791,0.02637,0.11035,0.05273
	l0.125-0.08398l0.03906-0.19336l0.07324-0.36816l0.50781-0.34082l0.46094,0.09082l0.15234-0.77246l-0.33105-0.49414
	l-0.38184-0.56641l-0.01758-0.02832l-0.0127-0.01758l0.29199-1.47852l-0.3125-0.46582l-0.09277-0.14062l-0.01367-0.01953
	l0.00293-0.01172c-0.44336,0.18848-0.88672,0.38184-1.3291,0.57715l0.26758,0.39844c0.03809-0.0127,0.08008-0.01465,0.12012-0.00684
	c0.06543,0.01172,0.12109,0.05176,0.15527,0.1084c0.02832,0.0498,0.03906,0.10742,0.02734,0.16406
	c-0.00781,0.04004-0.02441,0.07617-0.05273,0.1084l0.23535,0.35059l-0.03711,0.19043
	c0.04883,0.02441,0.08887,0.06641,0.1123,0.11719c0.01855,0.04297,0.02344,0.09082,0.01367,0.13672
	c-0.02441,0.12598-0.14648,0.20801-0.27344,0.18359c-0.00488-0.00098-0.01074-0.00195-0.01562-0.00391
	c-0.05273,0.04688-0.12598,0.06445-0.19531,0.05176c-0.03125-0.00586-0.06055-0.01855-0.08789-0.03711l-0.15039,0.13086
	l-0.02832-0.00488l-0.38086-0.07617l-1.25391,0.83887l-0.03516,0.02441L115.34424,24.25l-0.02148-0.00488l-0.77734-0.15332
	l-0.02344-0.00488l-0.5459-0.81445l-0.52441-0.10449l-0.04492,0.02246l0.49316,0.0957l0.66016,0.9873l0.05859,0.08691
	l0.1123,0.16895l0.14844,0.2207c0.04004-0.01367,0.08105-0.0166,0.12305-0.00879c0.07324,0.01367,0.13281,0.06348,0.16504,0.12891
	c0.01953,0.04492,0.02734,0.0957,0.0166,0.14453c-0.02344,0.12598-0.14648,0.20703-0.27148,0.18262
	c-0.12598-0.02539-0.20801-0.14746-0.18359-0.27148c0.00781-0.04199,0.02734-0.0791,0.05469-0.11133l-0.93262-1.39062
	l-0.02051-0.03223l-0.59766-0.11816l-0.04395,0.02051l0.3584,0.07227l0.22949,0.34375
	c0.02148-0.00684,0.04297-0.01172,0.06543-0.0127c0.02637-0.00293,0.05176-0.00098,0.0791,0.00195v0.00098
	c0.02441,0.00488,0.04883,0.01367,0.07227,0.02637c0.04004,0.02051,0.07324,0.05176,0.09961,0.08887
	c0.02539,0.03906,0.04102,0.08301,0.04492,0.12891c0.00195,0.02441,0,0.0498-0.00391,0.07617l-0.00098,0.00195l-0.00098,0.00098
	c-0.01367,0.06934-0.05469,0.12891-0.11426,0.16895c-0.05957,0.04102-0.13281,0.05469-0.20605,0.04102h0.00098
	c-0.06934-0.01367-0.13184-0.05469-0.1709-0.11426l-0.00098-0.00098c-0.04102-0.06055-0.05371-0.13379-0.04102-0.2041v-0.00098
	c0.00488-0.02344,0.0127-0.04785,0.02539-0.07129c0.0127-0.02539,0.03125-0.05078,0.05273-0.07031l-0.20215-0.30078l-0.46191-0.0918
	c-0.09473,0.0459-0.19238,0.0918-0.28711,0.13965c0.04688,0.01855,0.08887,0.05273,0.11816,0.09668
	c0.01465,0.02344,0.02734,0.04883,0.03516,0.07715c0.01172,0.04102,0.01367,0.08496,0.00488,0.12988v-0.00195
	c-0.00977,0.04883-0.0332,0.09473-0.06738,0.13184c-0.01367,0.01367-0.0293,0.02832-0.04785,0.04004
	c-0.0127,0.00977-0.02734,0.0166-0.04102,0.02441c-0.01074,0.00391-0.02148,0.00781-0.0332,0.01172l1.41211,0.27832l0.07715,0.11426
	l0.07422,0.1084c0.03906-0.00879,0.08105-0.01074,0.12109-0.00293l0.00293,0.00098l0,0
	c0.06934,0.01367,0.12988,0.05469,0.16992,0.11426c0.02539,0.03711,0.03906,0.07812,0.04492,0.12207
	c0.00195,0.02637,0.00098,0.05469-0.00488,0.08496v-0.00098c-0.0127,0.06934-0.05371,0.13086-0.11426,0.1709
	c-0.05859,0.04004-0.13184,0.05469-0.20117,0.04102h-0.00586l-0.00195-0.00098c-0.06836-0.01562-0.12793-0.05664-0.16797-0.11426
	c-0.03906-0.05957-0.05469-0.13184-0.04102-0.20117v-0.00391V24.7373c0.00586-0.02637,0.0166-0.05078,0.02832-0.07422
	c0.01562-0.03027,0.03906-0.05762,0.06445-0.08008l-0.11426-0.17188l-2.2334-0.44141
	c-0.13477,0.06641-0.27148,0.13574-0.40527,0.20215l0.29199,0.05859l0.02441,0.00488l0.01172,0.01953l0.22656,0.33789
	l0.03223,0.04785l-0.375,0.25098l-0.37402-0.07324l-0.88477,0.59277l-0.02539-0.00488l-0.96875-0.19141l-0.34375,0.18066
	l1.0752,0.21191l0.31543,0.47363l0.44141,0.08691l0.61426-0.41113l0.01953-0.01367l1.7168,0.33887l0.02441,0.00586l0.28906,0.43262
	l1.56543,0.30762l0.02246,0.00586l0.20215,0.30078l0.63672,0.12695c0.02148-0.04785,0.05566-0.08789,0.09863-0.11719
	c0.05957-0.04102,0.13281-0.05469,0.2041-0.04199h0.00195h0.00195c0.06836,0.01562,0.12988,0.05664,0.16992,0.11523
	c0.03906,0.05957,0.05371,0.13379,0.03906,0.20801V27.4248c-0.00098,0.00879-0.00293,0.0166-0.00586,0.02539
	c-0.00488,0.01465-0.01074,0.02832-0.01758,0.04102c-0.01953,0.04199-0.05176,0.07812-0.0918,0.10449
	c-0.05859,0.03906-0.13184,0.05469-0.20508,0.04004l0.00098,0.00098c-0.07031-0.01465-0.13184-0.05469-0.17188-0.11621
	c-0.02734-0.03809-0.04297-0.08398-0.04492-0.13086c-0.00098-0.00488-0.00098-0.00977-0.00098-0.01367l-0.66113-0.13086
	l-0.02344-0.00586l-0.01367-0.01953l-0.18848-0.28223l-1.58789-0.3125l-0.28906-0.43359l-1.64551-0.32617l-0.61523,0.41113
	l-0.02051,0.01367l-0.02246-0.00391l-0.48926-0.09668l-0.02344-0.00391l-0.31641-0.47363l-1.1709-0.23145
	c-0.0918,0.04785-0.18262,0.09766-0.27344,0.14551l0.03809,0.05664l0.69922,0.13867
	c0.02051-0.04785,0.05469-0.08789,0.09766-0.11816c0.05859-0.03906,0.12891-0.05371,0.19922-0.04102l0.00195-0.00195
	l0.00488,0.00293c0.07129,0.01562,0.13086,0.05664,0.16992,0.11523c0.04102,0.06055,0.05664,0.13281,0.04199,0.20605V25.9834
	c-0.01172,0.05859-0.04395,0.1123-0.08887,0.15137c-0.00781,0.00781-0.0166,0.01367-0.02637,0.01953
	c-0.00781,0.00586-0.01562,0.00977-0.02246,0.01367c-0.01367,0.00879-0.0293,0.01465-0.04395,0.02051l0.2002,0.03906
	l0.01172,0.02246l0.12305,0.20605c0.0459-0.0166,0.09766-0.01953,0.14648-0.01172l0,0
	c0.07129,0.01562,0.13379,0.05566,0.1748,0.11621c0.01758,0.02832,0.03125,0.05762,0.03906,0.0918s0.00879,0.07031,0.00293,0.10547
	l0.00293,0.00586l-0.00488,0.00684c-0.00684,0.02441-0.0166,0.04785-0.02734,0.07031
	c-0.01465,0.02637-0.03418,0.05078-0.05566,0.07129c-0.00684,0.00586-0.0127,0.01172-0.02051,0.01758
	c-0.00391,0.00195-0.00781,0.00586-0.01172,0.00684c-0.01367,0.00977-0.02832,0.0166-0.04102,0.02441
	c-0.01172,0.00488-0.02441,0.00977-0.03613,0.01172l0.65234,0.12988l0.05664-0.03809l0.46094-0.30859
	c-0.01367-0.04004-0.01562-0.08105-0.00781-0.12305c0.01172-0.06348,0.04883-0.11719,0.10547-0.15234
	c0.02051-0.0127,0.0459-0.02441,0.07031-0.0293c0.03125-0.00684,0.06543-0.00684,0.09766-0.00098
	c0.03027,0.00586,0.06152,0.01953,0.08887,0.03809c0.02051,0.01562,0.03906,0.0332,0.05469,0.05566
	c0.03809,0.05176,0.05078,0.11621,0.03906,0.17969c-0.02539,0.12598-0.14844,0.20801-0.27344,0.18262
	c-0.04102-0.00879-0.07715-0.02637-0.10938-0.05371l-0.53711,0.36035l-0.02148,0.0127l-0.02246-0.00391l-3.79883-0.75098
	c-0.04004,0.02148-0.08105,0.04492-0.12109,0.06641l1.18066,0.2334l0.49121,0.7334l0.22754,0.04395
	c-0.00195-0.00195-0.00293-0.00391-0.00391-0.00488c-0.04004-0.06055-0.05469-0.13184-0.04102-0.2002v-0.00781l0.00195-0.00195
	c0.01465-0.06836,0.05469-0.12988,0.11426-0.16602c0.01953-0.01562,0.04395-0.02637,0.06836-0.03516
	c0.04395-0.01367,0.09082-0.0166,0.13574-0.00684l0,0c0.04492,0.00879,0.08594,0.02832,0.12109,0.05762
	c0.01855,0.0166,0.03711,0.03516,0.05078,0.05664c0.04102,0.06055,0.05469,0.13379,0.04102,0.20703l0.00098-0.00195
	c-0.01465,0.07227-0.05566,0.13281-0.11621,0.17188c-0.00098,0.00098-0.00293,0.00195-0.00293,0.00195l0.17578,0.26367
	l0.1748,0.2627l0.21191,0.31445l0.66504,0.13281l1.25879-0.84375l0.02344,0.00391l2.15332,0.42676l0.38281-0.25684l1.73047,0.3418
	l0.01465,0.01953L116.26611,28.76172z M115.14209,30.04004c0.33984-0.40234,0.68848-0.79785,1.04297-1.19043l-0.32129-0.48145
	l-1.6377-0.32324l-0.36328,0.24219l-0.01855,0.01367l-2.17578-0.42969l-0.48438,0.32422l-0.09277,0.0625l-0.68262,0.45605
	l-0.76074-0.15039l-0.01367-0.01953l-0.26758-0.40039l-0.32422-0.4834c-0.02832,0.00488-0.05859,0.00391-0.09082-0.00391
	l0.00098,0.00098c-0.00488-0.00098-0.00977-0.00293-0.01465-0.00293l0.73145,1.0918l0.6709,0.13281l0.65527-0.44043l0.26367-0.1748
	l0.31348-0.21094l1.31445,0.25977l0.02246,0.00391l0.22266,0.31641l0.0459,0.06445l0.85938,0.1709l0.01367,0.01953l0.2627,0.3916
	l0.375,0.07422l0.01465,0.02148L115.14209,30.04004z M104.39893,36.02832c0.10059-0.00391,0.19922-0.00781,0.30078-0.01074
	l0.08301-0.41895l0.0625-0.31738l-0.32227-0.47852c-0.05273,0.02539-0.1123,0.0332-0.16992,0.02344l-0.00488,0.00195
	l-0.00488-0.00391c-0.06836-0.0127-0.12793-0.05469-0.16797-0.11328c-0.04004-0.05957-0.05469-0.13379-0.04004-0.20703v0.00098
	c0-0.00684,0.00195-0.01465,0.00391-0.02051c0.01855-0.06348,0.05859-0.11523,0.11133-0.15137
	c0.05859-0.04004,0.13184-0.05371,0.20703-0.04004h-0.00098c0.06934,0.01465,0.12988,0.05566,0.1709,0.11426
	c0.03418,0.05371,0.05078,0.11816,0.04395,0.18066c0,0.00879-0.00195,0.01562-0.00391,0.02344v0.00195l0,0
	c-0.00879,0.04297-0.02734,0.08105-0.05273,0.11523l0.35254,0.52637l-0.15039,0.75977
	c0.81445-0.02051,1.64355-0.00586,2.4873,0.04297l-0.50098-0.10059l-0.02246-0.00391l-0.28125-0.41895l-0.01367-0.01953
	l0.00391-0.02441l0.09961-0.50195l-0.44434-0.66211c-0.05273,0.02637-0.11133,0.03418-0.16992,0.02441h-0.00586l-0.00195-0.00195
	c-0.06836-0.0166-0.12793-0.05566-0.16797-0.11426c-0.03906-0.06055-0.05469-0.13281-0.04102-0.20605l0.00195-0.00195
	c0.01465-0.06934,0.05566-0.12988,0.11426-0.16895c0.05957-0.04004,0.13281-0.05566,0.2041-0.04004
	c0.07129,0.0127,0.13184,0.05469,0.17188,0.11426c0.04102,0.05957,0.05469,0.13281,0.04102,0.20312v0.00391v0.00098
	c-0.00879,0.04102-0.02734,0.08008-0.05469,0.11328l0.47559,0.71094l-0.00391,0.02344l-0.00195,0.00488l-0.00293,0.01855
	l-0.09375,0.47852l0.23926,0.35938l0.68945,0.13574l0.03027,0.08789c0.14746,0.00977,0.29785,0.02148,0.44727,0.0332
	c-0.00098-0.02246,0-0.04297,0.00391-0.06445c0.00781-0.03613,0.02246-0.06934,0.0459-0.09961l-0.10059-0.14844l-0.81543-0.16211
	l-0.3877-0.57812l0.00391-0.02441l0.05469-0.27441l-0.55273-0.82227l-0.01367-0.02148l0.00586-0.02344l0.1084-0.54688
	l0.35645-0.23828l0.08398-0.42773c-0.03809-0.01855-0.07227-0.05078-0.09668-0.08789l-0.00098-0.00098
	c-0.02637-0.04004-0.04199-0.08789-0.04492-0.13672c-0.00098-0.02344,0.00098-0.04297,0.00488-0.06445v-0.00195
	c0.00195-0.00586,0.00195-0.01074,0.00391-0.01562c0.01367-0.0498,0.03906-0.0957,0.0791-0.12988
	c0.00977-0.01074,0.02148-0.01953,0.03223-0.02637c0.05957-0.04102,0.13281-0.05469,0.20605-0.04199h0.00098
	c0.06934,0.01562,0.12988,0.05566,0.16992,0.11523c0.00781,0.01172,0.01465,0.02344,0.01953,0.03711
	c0.02246,0.04688,0.03027,0.09863,0.02344,0.15039c0,0.00391-0.00098,0.00879-0.00195,0.0127l0.00098,0.00195l-0.00195,0.00391
	c-0.00391,0.02051-0.00977,0.04102-0.02051,0.06055c-0.01953,0.04492-0.05371,0.08301-0.09375,0.11133
	c-0.0498,0.0332-0.10742,0.04883-0.16699,0.04492l-0.08691,0.44141l-0.00391,0.02246l-0.36035,0.24121l-0.09277,0.47461
	l0.56641,0.84473l-0.06055,0.29785l0.33398,0.49805l0.81836,0.16211l0.12207,0.18262c0.04199-0.0166,0.08887-0.02246,0.13281-0.0127
	c0.12695,0.02539,0.20801,0.14746,0.18457,0.27441l-0.00391,0.0127c0.75781,0.07129,1.52734,0.16895,2.30957,0.29688
	c1.21582-2.2666,2.65039-4.3623,4.28125-6.30957l-0.44336-0.67383l-0.35156-0.06934l-0.02246-0.00488l-0.01465-0.02051
	l-0.2627-0.3916l-0.8584-0.16992l-0.0127-0.01953l-0.25488-0.36035l-1.24512-0.24609l-1.21582,0.81348l-0.01855,0.0127
	l-0.02246-0.00488l-0.71777-0.14258l-0.02246-0.00488l-0.79102-1.17871l-0.32129-0.06543l-0.49023-0.73145l-1.26855-0.25
	c-0.41992,0.22852-0.83594,0.46289-1.25,0.69629l0.50879,0.75879l3.35352,0.66309l0.02344,0.00488l0.01172,0.0166l0.00098,0.00195
	l0.58008,0.86621l0.28711,0.05566c0.04492-0.09375,0.15039-0.14648,0.25488-0.12695c0.125,0.02637,0.20703,0.14844,0.18262,0.27344
	c-0.00195,0.01074-0.00391,0.02051-0.00781,0.03223c-0.03906,0.1084-0.15234,0.17285-0.26562,0.15039
	c-0.10449-0.01953-0.18066-0.10938-0.18652-0.21484l-0.33496-0.06543l-0.59375-0.88574l-3.37598-0.66797l-0.05859-0.08691
	l-0.48145-0.71777l-0.0498,0.02734l0.56738,0.84766l2.83008,0.55859l0.50391,0.75293l0.97168,1.45215l0.0459,0.06738
	l0.13672,0.02637c0.00781-0.0166,0.01855-0.03125,0.03027-0.04688c0.05469-0.06543,0.14062-0.09668,0.22461-0.0791
	c0.08398,0.01562,0.15137,0.07617,0.17676,0.1582c0.01074,0.03613,0.0127,0.07617,0.00586,0.11328
	c-0.02441,0.12598-0.14648,0.20801-0.27246,0.18359c-0.10547-0.02148-0.18164-0.10938-0.1875-0.21484l-0.18457-0.03711
	l-0.0127-0.01953l-0.1582-0.23633l-1.35156-2.01465l-2.82812-0.56055l-0.59961-0.89258l-0.04785,0.02539l0.67676,1.01172
	l2.83496,0.55957l0.01172,0.02051l0.66699,0.99609l0.41699,0.62207l-0.00391,0.02344l-0.04492,0.22754
	c0.09473,0.0459,0.14844,0.14941,0.12695,0.25488c-0.02441,0.12598-0.14648,0.20801-0.27148,0.18262
	c-0.12695-0.02441-0.20996-0.14648-0.18359-0.27344c0.02051-0.10449,0.11035-0.18066,0.21387-0.18652l0.04102-0.20312
	l-1.0459-1.55859l-2.80859-0.55664l-0.02344-0.00488l-0.01367-0.01855l-0.66504-0.99316l-0.08203-0.0166
	c-0.46484,0.26562-0.92676,0.53223-1.38672,0.80273l0.32617,0.0625l0.02246,0.00488l0.48242,0.72168l1.3418,0.26367l0.06836-0.04492
	l0.29004-0.19434l-1.28516-0.25293l-0.01172-0.01855l-0.07715-0.11621c-0.04004,0.01367-0.08203,0.0166-0.12305,0.00879
	c-0.08496-0.01758-0.15332-0.0791-0.17773-0.16211c-0.01172-0.03711-0.01367-0.07324-0.00488-0.11035
	c0.02441-0.12598,0.14648-0.20703,0.27246-0.18457c0.12598,0.02637,0.20703,0.14941,0.18359,0.27441
	c-0.00781,0.03711-0.02344,0.07031-0.04785,0.09961c-0.00195,0.00391-0.00488,0.00684-0.00781,0.00977l0.06543,0.0957
	l1.50977,0.29785l-0.4541,0.30566l-0.1748,0.11719l-1.4375-0.28516l-0.0127-0.01855l-0.46875-0.70117l-0.27832-0.05371
	l-0.27441,0.18262l-0.18164-0.03516c-0.09277,0.05469-0.18359,0.10938-0.27734,0.16406l0.58984,0.11719
	c0-0.00098,0.00098-0.00195,0.00195-0.00293c0.01953-0.03711,0.0498-0.06836,0.08301-0.08984
	c0.05957-0.04102,0.13281-0.05664,0.20215-0.04199h0.00391l0.00195,0.00098c0.06836,0.01465,0.12988,0.05469,0.16992,0.11328
	c0.02246,0.03516,0.03809,0.0752,0.04297,0.11621c0.00391,0.03027,0.00391,0.06055-0.00293,0.0918v-0.00195
	c-0.01562,0.07031-0.05469,0.13281-0.11523,0.17188c-0.05957,0.04102-0.13281,0.05566-0.20605,0.04102l0.00098,0.00098
	c-0.07031-0.01562-0.13086-0.05664-0.1709-0.11523c-0.03516-0.05078-0.0498-0.11328-0.04492-0.17285l-0.7041-0.13965
	l-0.19434,0.11523l0.08887,0.13477l3.53223,0.69824l0.70508-0.47266l1.28711,0.25488l0.02344,0.00391l0.01367,0.02051
	l0.15137,0.22559l0.07324,0.10645l-0.13379,0.6709l-0.19629,0.99316l0.63379,0.94629l0.17676,0.03516
	c0.04492-0.09375,0.15137-0.14648,0.25391-0.12793c0.11914,0.02441,0.19922,0.13477,0.18652,0.25488
	c0,0.00586-0.00098,0.0127-0.00195,0.01855c-0.00977,0.0459-0.03223,0.08594-0.06445,0.11914
	c-0.02832,0.0293-0.06738,0.05176-0.10938,0.0625c-0.03223,0.00781-0.06738,0.00781-0.09961,0.00195
	c-0.03418-0.00684-0.06445-0.01953-0.09277-0.04102c-0.03418-0.02344-0.06055-0.05957-0.07715-0.09863
	c-0.00977-0.02441-0.01562-0.0498-0.01758-0.07422l-0.22363-0.04492l-0.01367-0.02051l-0.67383-1.00781l0.00391-0.02246
	l0.32422-1.63965l-0.18262-0.27246l-1.2168-0.24023l-0.70508,0.47168l-0.02344-0.00391l-3.60156-0.71191l-0.01465-0.02051
	l-0.10547-0.1582l-0.05664,0.03125l0.14355,0.21094l3.6875,0.73047l0.68164-0.45605l0.00586-0.00488l1.05664,0.20898
	l0.02246,0.00391l0.01465,0.02148l0.19141,0.28613l0.01367,0.02051l-0.09766,0.49219l-0.23535,1.19629l0.49414,0.73828
	l0.10156,0.15039c0.03613-0.00684,0.07324-0.00684,0.11328,0h-0.00098c0.03516,0.00781,0.07129,0.02344,0.10156,0.04492
	c0.02734,0.01855,0.05078,0.04199,0.06934,0.07031c0.00586,0.00879,0.01074,0.01855,0.0166,0.03027
	c0.02148,0.04199,0.03125,0.08789,0.02832,0.13477c0,0.01172-0.00195,0.02539-0.00488,0.04199v-0.00195
	c-0.01465,0.07031-0.05469,0.13281-0.11328,0.17188c-0.0625,0.04004-0.13477,0.05469-0.20801,0.04004l0.00195,0.00098
	c-0.07129-0.01367-0.13184-0.05469-0.17188-0.11523c-0.04004-0.05859-0.05469-0.13281-0.04102-0.20508v-0.00195h0.00098
	c0.00293-0.01074,0.00391-0.02246,0.00879-0.03516c0.01465-0.04395,0.04297-0.08301,0.07715-0.11426
	c0.00488-0.00488,0.00977-0.00879,0.01465-0.0127l-0.02832-0.04297l-0.00488-0.00781l-0.10156-0.15039l-0.46289-0.69141
	l-0.01367-0.02051l0.00391-0.02246l0.33008-1.66699l-0.16602-0.24609l-0.98438-0.19434l-0.68848,0.46094l-0.02344-0.00488
	l-3.73633-0.73926l-0.02441-0.00391l-0.01172-0.02148l-0.16016-0.23438c-0.0498,0.0293-0.10059,0.06055-0.15137,0.09082
	l0.16211,0.24512l4.56543,0.90137l0.66016,0.98535l-0.13184,0.67285l0.52051,0.77441l-0.0957,0.48047l0.19922,0.2959
	l0.86035,0.16992l0.2998-0.20117l0.16602,0.0332c0.0459-0.09473,0.15137-0.14844,0.25488-0.12598
	c0.12598,0.02344,0.20801,0.14551,0.18262,0.27246c-0.0166,0.08496-0.0791,0.15332-0.16309,0.17773
	c-0.03516,0.00977-0.07227,0.01172-0.10938,0.00391c-0.03613-0.00586-0.07031-0.02246-0.09863-0.04492
	c-0.05273-0.04199-0.08398-0.10352-0.08789-0.16797l-0.12012-0.02441l-0.2998,0.20117l-0.9541-0.18945l-0.25293-0.37793
	l0.0957-0.47754l-0.52148-0.77637l0.13281-0.66992l-0.60742-0.9082l-4.56348-0.90137l-0.19336-0.28809l-0.04395,0.02637
	l0.24902,0.37109l4.41113,0.87109l0.25684,0.38379l0.01367,0.02051l-0.00488,0.02246l-0.03613,0.18359
	c0.09375,0.0459,0.14648,0.14941,0.12695,0.25391c-0.02539,0.12695-0.14844,0.20801-0.27344,0.18359
	c-0.12598-0.02539-0.20801-0.14746-0.18262-0.27246c0.02051-0.10547,0.10938-0.18262,0.21484-0.18848l0.03125-0.1582
	l-0.21582-0.32227l-4.41211-0.87207l-0.01367-0.02051l-0.26367-0.39453l-0.08301,0.04883l0.60547,0.87305l1.37988,0.27148
	l0.25781,0.38379l0.87012,0.17188l0.02051,0.00391l0.01367,0.01855l0.19336,0.26562l0.01465,0.02051l-0.00391,0.02539
	l-0.05469,0.27344c0.0498,0.02148,0.09375,0.05664,0.12402,0.10156c0.0166,0.02539,0.03027,0.05273,0.03809,0.08203
	c0.00879,0.04004,0.01074,0.08008,0.00391,0.12012v0.00391l-0.00098,0.00195c-0.00195,0.00684-0.00293,0.0127-0.00488,0.02051
	c-0.00781,0.02832-0.02148,0.05469-0.03809,0.07715c-0.01953,0.02832-0.04297,0.05176-0.07227,0.07227
	c-0.01855,0.01074-0.03906,0.02148-0.05957,0.0293c-0.03027,0.01172-0.06348,0.0166-0.09473,0.01562l-0.02246,0.11914
	l0.52637,0.78613l-0.11133,0.55664c0.08789,0.04297,0.14062,0.13672,0.12988,0.23633c0,0.00488-0.00195,0.0127-0.00293,0.01855
	c-0.02441,0.12598-0.14746,0.20801-0.27246,0.18359c-0.12598-0.02539-0.20898-0.14746-0.18262-0.27344
	c0.00195-0.00684,0.00293-0.01172,0.00391-0.01855c0.02832-0.0957,0.11328-0.16211,0.20996-0.16699l0.10254-0.5127l-0.52637-0.78613
	l0.00391-0.02148l0.02832-0.14746c-0.02441-0.01074-0.04492-0.02441-0.06543-0.04297
	c-0.0166-0.01465-0.03223-0.03125-0.04395-0.05078c-0.01855-0.02832-0.0332-0.05957-0.04004-0.09375
	c-0.00586-0.02832-0.00781-0.05762-0.00488-0.08398c0.00098-0.00879,0.00195-0.01758,0.00391-0.02832v0.00098
	c0.00781-0.04102,0.02637-0.07812,0.04883-0.10938c0.01953-0.02344,0.04102-0.0459,0.06641-0.06152
	c0.04102-0.0293,0.08789-0.04297,0.1377-0.0459l0.04883-0.25391l-0.16309-0.22656l-0.87012-0.17188l-0.02344-0.00586
	l-0.01367-0.01855l-0.24316-0.3623l-1.37988-0.27441l-0.01367-0.01758l-0.62305-0.89844
	c-0.26172,0.15918-0.52148,0.32031-0.78125,0.48145l-0.08984,0.4502l0.64453,0.96094l0.09277,0.1377l0.52832,0.78809
	l0.01367,0.02051l-0.00488,0.02344l-0.12012,0.60254l0.22852,0.33984l0.76172,1.13477l0.99414,0.19824l0.02344,0.00293
	l0.01465,0.02051l0.48535,0.72461l-0.00488,0.02441L104.39893,36.02832z M98.646,36.81348
	c1.15234-0.27441,2.33203-0.48535,3.54297-0.62109l0.00195-0.00586c0.00879-0.03906,0.02832-0.07617,0.05273-0.10645
	l-0.15039-0.22559l-0.47949-0.09473l-0.01367-0.02051l-0.32031-0.47754l0.21387-1.08789l-0.15234-0.22852l-0.21777-0.3252
	l-0.33301-0.49707l-0.01367-0.01953l0.00488-0.02441l0.00586-0.03125l0.11426-0.58105
	c-0.04395-0.02051-0.08301-0.05273-0.11035-0.09473c-0.03906-0.05762-0.05566-0.12988-0.04297-0.2002l-0.00098-0.00293
	l0.00391-0.00391c0.01465-0.07031,0.05566-0.13086,0.11328-0.16992c0.06055-0.04004,0.13379-0.05566,0.20508-0.04199
	l0.00195,0.00098l0.00195,0.00098c0.07031,0.01465,0.12891,0.05469,0.16797,0.11426
	c0.04102,0.05957,0.05664,0.13281,0.04199,0.20605v-0.00098c-0.01465,0.06934-0.05566,0.13184-0.11523,0.1709
	c-0.04492,0.03125-0.09863,0.04785-0.15137,0.04785l-0.11719,0.58594l0.58203,0.86816l0.12207,0.18164l0.01367,0.02051
	l-0.21582,1.08789l0.28125,0.41699l0.48047,0.09473l0.0127,0.02051l0.16504,0.24707
	c0.04004-0.01465,0.08105-0.01855,0.12305-0.00879c0.07422,0.01465,0.13574,0.06348,0.16602,0.13379l0.00391,0.00586
	c0.54102-0.05371,1.08984-0.09082,1.64648-0.11523l0.11816-0.60352l-0.44434-0.66504l-0.99609-0.19629l-0.02441-0.00488
	l-0.0127-0.02051l-1.0293-1.53613l0.12305-0.62402l-1.27734-1.90723l0.07715-0.39258l-0.13184,0.08105l-0.10547,0.5332
	l0.24512,0.36328l0.98535,1.4707l-0.13281,0.66992l0.00781,0.00977l1.02051,1.52344l1.11133,0.21973l0.05566,0.08008
	c0.03809-0.01367,0.08105-0.0166,0.12109-0.00879c0.12695,0.02539,0.20898,0.14746,0.18359,0.27246
	c-0.02637,0.12695-0.14844,0.20703-0.27441,0.18457c-0.125-0.02637-0.20703-0.14941-0.18262-0.27344
	c0.00781-0.04199,0.02832-0.0791,0.05566-0.11035l-0.02734-0.03906l-1.11328-0.22168l-0.01367-0.01953l-1.06641-1.59375
	l0.13184-0.66895l-0.14648-0.21875l-1.06934-1.5957l-0.01367-0.02051l0.09375-0.47266
	c-0.07324,0.0459-0.14746,0.0918-0.22168,0.1377l-0.0791,0.40234l0.41797,0.625l-0.00391,0.02246l-0.28711,1.45508l0.42969,0.64062
	l0.21777,0.32617l0.09473,0.14062l-0.00391,0.02441l-0.16992,0.85254l-0.00977,0.05762l-0.05664-0.0127l-0.47168-0.09277
	L99.979,35.11328l-0.1123,0.56348l-0.16504,0.11035c0.01367,0.03906,0.01758,0.08105,0.00879,0.12207
	c-0.02539,0.12598-0.14746,0.20801-0.27246,0.18262c-0.12598-0.02441-0.20801-0.14648-0.18457-0.27344
	c0.02637-0.12402,0.14844-0.20703,0.27344-0.18066c0.04102,0.00781,0.0791,0.02441,0.11133,0.05273l0.12402-0.08301l0.11035-0.56348
	l0.51074-0.34082l0.45898,0.09082l0.15137-0.77148l-0.70996-1.06152l-0.03223-0.04688l0.29395-1.47852l-0.31348-0.46484
	l-0.09277-0.13965l-0.01367-0.02051l0.00488-0.02344l0.0625-0.31641c-0.4707,0.2959-0.93945,0.59473-1.40137,0.89355
	l0.27637,0.41113c0.03809-0.01367,0.08008-0.0166,0.11914-0.00879c0.06445,0.01465,0.12109,0.05469,0.15527,0.10938
	c0.02832,0.04883,0.03809,0.10938,0.02832,0.16406c-0.00781,0.04102-0.02637,0.07715-0.05273,0.10938l0.23535,0.34961
	l-0.00684,0.02441l-0.03223,0.16699c0.05078,0.02344,0.08984,0.06445,0.1123,0.11621
	c0.01953,0.04395,0.02441,0.0918,0.01562,0.13867c-0.02539,0.125-0.14844,0.20801-0.27344,0.18164
	c-0.12695-0.02344-0.20801-0.14551-0.18359-0.27246c0.00977-0.04688,0.0332-0.08984,0.06641-0.12012
	c0.04004-0.04004,0.09375-0.06445,0.14941-0.06738l0.02734-0.14258l-0.20703-0.31055
	c-0.04004,0.01367-0.08203,0.01855-0.12305,0.00977c-0.12598-0.02539-0.20801-0.14746-0.18457-0.27344
	c0.00781-0.04004,0.02832-0.0791,0.05664-0.11133l-0.05762-0.08496c-0.00098,0.01465-0.00293,0.0293-0.00488,0.04297v0.00195
	l-0.00098,0.00195c-0.00391,0.02539-0.01367,0.04883-0.02637,0.07227c-0.02051,0.03906-0.05176,0.07227-0.08691,0.09766
	c-0.01953,0.0127-0.04199,0.02344-0.0625,0.0293c-0.0459,0.01562-0.09473,0.02051-0.14551,0.00977h0.00098
	c-0.04688-0.00977-0.08984-0.0293-0.12598-0.0625c-0.00781-0.00586-0.01465-0.01465-0.02051-0.02246l-0.14746,0.09961
	l-0.07129,0.0498l-0.15625,0.79004l-0.00488,0.02344l-0.02148,0.01367l-0.75488,0.50488l-0.16797-0.03223
	C97.0708,33.4668,96.96533,33.52051,96.86182,33.5c-0.125-0.02441-0.20801-0.14648-0.18359-0.27148
	c0.02539-0.12695,0.14844-0.20801,0.27344-0.18457c0.10449,0.02246,0.18066,0.11133,0.18652,0.21484l0.12109,0.02441
	l0.69531-0.46582l0.16113-0.81445l0.26562-0.17773c-0.00488-0.01758-0.00879-0.03516-0.01074-0.05273
	c-0.00195-0.02637-0.00098-0.05469,0.00391-0.08008v-0.00391h0.00098c0.00488-0.02344,0.01367-0.0459,0.02344-0.06738
	c-0.59082,0.38672-1.17383,0.77734-1.74707,1.16797l0.50098,0.09863l0.14648-0.09863
	c-0.01367-0.03906-0.01758-0.08105-0.00879-0.12207c0.02539-0.125,0.14746-0.20801,0.27344-0.18164
	c0.125,0.02344,0.20703,0.14648,0.18164,0.27148c-0.02539,0.12598-0.14648,0.20801-0.27148,0.18359
	c-0.04199-0.00879-0.0791-0.02734-0.11035-0.05469l-0.1875,0.12402l-0.66016-0.12988
	c-0.33594,0.22949-0.66699,0.45801-0.99609,0.68848l0.97363,0.19141l0.02246,0.00586l0.20215,0.30176l0.63867,0.125
	c0.01953-0.04688,0.05371-0.08789,0.09668-0.11719c0.06055-0.03906,0.13379-0.05469,0.20703-0.03906l-0.00195-0.00098
	c0.07227,0.01465,0.13281,0.05371,0.17188,0.11523c0.04004,0.05957,0.05566,0.13184,0.04199,0.2002v0.00391l-0.00098,0.00195
	c-0.00195,0.00977-0.00391,0.01758-0.00684,0.02637c-0.00391,0.01367-0.00977,0.02637-0.01562,0.03906
	c-0.02246,0.04297-0.05371,0.07812-0.09277,0.10449c-0.05957,0.04102-0.13281,0.05469-0.20605,0.04199h0.00195
	c-0.07031-0.01367-0.13281-0.05566-0.17188-0.11523c-0.02637-0.04004-0.04297-0.08496-0.04688-0.13184
	c0-0.00391-0.00098-0.00879-0.00098-0.01367l-0.66016-0.13184L96.6499,34.1709l-0.01465-0.01953l-0.1875-0.28125l-1.05957-0.20996
	c-0.10742,0.07715-0.21484,0.15332-0.32129,0.23047l0.87891,0.17285l0.26465,0.39355l0.0332,0.04785l1.45117,0.28809l0.21289-0.1543
	c-0.01465-0.04199-0.01855-0.08691-0.01074-0.13184c0.00586-0.02734,0.01562-0.05566,0.0332-0.0791
	c0.00781-0.01562,0.01758-0.02637,0.0293-0.03809c0.05566-0.05664,0.13379-0.0791,0.20898-0.06543
	c0.07715,0.01562,0.1416,0.06836,0.16992,0.13965c0.00684,0.01562,0.01172,0.03027,0.01465,0.04688
	c0.00586,0.0293,0.00488,0.05859,0,0.08691c-0.02637,0.12695-0.14844,0.20801-0.27344,0.18359
	c-0.03809-0.00781-0.07324-0.02539-0.10254-0.04883l-0.23535,0.16992l-0.01855,0.01367l-1.55078-0.30566l-0.0127-0.02051
	l-0.2832-0.42285l-0.94043-0.18555c-0.29297,0.20898-0.58301,0.41699-0.87012,0.62598l1.2334,0.24414l0.3584-0.24023
	l0.02246,0.00586l1.74707,0.34668l0.00879,0.0127l0.36621,0.5459l0.18359,0.03711c0.01758-0.05957,0.05566-0.1084,0.10645-0.14355
	c0.01172-0.00684,0.02344-0.01367,0.03613-0.01953c0.05273-0.02441,0.11133-0.03223,0.16895-0.02051h0.00195l0,0
	c0.05664,0.0127,0.10645,0.04004,0.14551,0.08301c0.00879,0.01074,0.01758,0.02051,0.02539,0.03125
	c0.04102,0.06055,0.05469,0.13379,0.04004,0.20801l0.00098-0.00195c-0.01562,0.07129-0.05566,0.13086-0.11426,0.17188
	c-0.02246,0.01465-0.0459,0.02637-0.07227,0.0332c-0.04297,0.01367-0.08789,0.01562-0.13574,0.00586l0,0
	c-0.04297-0.00684-0.08496-0.02734-0.11816-0.05664c-0.02051-0.0166-0.03809-0.03516-0.05176-0.05762
	c-0.02441-0.03516-0.03906-0.07422-0.04395-0.11816l-0.21973-0.04199l-0.02246-0.00586l-0.37402-0.55762l-1.67676-0.33301
	l-0.35645,0.23926l-0.02441-0.00488l-1.36426-0.27051c-0.05469,0.03906-0.10938,0.08008-0.16504,0.12109l1.46484,0.28809
	l0.08594-0.05664l0.29492-0.2002l0.02344,0.00586l1.70898,0.33691l0.0127,0.02051l0.93457,1.39355
	c0.04785-0.02832,0.10547-0.03809,0.16016-0.02832C98.56885,36.60352,98.64795,36.70117,98.646,36.81348z M97.22217,37.18652
	c0.32617-0.09473,0.65527-0.18262,0.98633-0.2666c-0.02539-0.04785-0.03418-0.10254-0.02344-0.1543
	c0.00586-0.02637,0.01465-0.05078,0.02734-0.07324l-0.29102-0.43457l-0.6416-0.95703l-1.63672-0.32324l-0.3623,0.24219
	l-0.02148,0.01367l-1.6123-0.32031c-0.07129,0.05273-0.1416,0.10547-0.21484,0.1582l0.89551,0.17676l0.2207,0.31641l0.04492,0.06445
	l0.83691,0.16504l0.02441,0.00586l0.0127,0.01855l0.26367,0.39355l0.375,0.07324l0.01367,0.02148l0.56055,0.84961l0.12109,0.02539
	c0.02344-0.0459,0.06055-0.08496,0.10742-0.1084c0.0459-0.02148,0.09668-0.02832,0.14746-0.01855
	c0.0498,0.00879,0.0957,0.03516,0.12891,0.07422c0.01465,0.0166,0.02734,0.03418,0.03613,0.05469L97.22217,37.18652z
	 M90.69971,39.83691c1.94922-1.01855,3.96973-1.875,6.08203-2.52051l-0.00098-0.00195
	c-0.00098-0.00488-0.00098-0.0127-0.00098-0.01855l-0.14648-0.02832l-0.02344-0.00586l-0.01367-0.02051l-0.55957-0.85059
	l-0.375-0.07422l-0.01367-0.01855l-0.26367-0.39453l-0.85742-0.16895l-0.01465-0.01855l-0.10547-0.15137l-0.14844-0.21094
	l-0.95117-0.18848c-0.63379,0.47266-1.25391,0.94238-1.85547,1.41406l0.20898,0.04199
	c0.0459-0.09473,0.15039-0.14746,0.25586-0.12793c0.12598,0.02539,0.20703,0.14844,0.18164,0.27344
	c-0.00195,0.01074-0.00391,0.02148-0.00781,0.0332c-0.03809,0.10742-0.15234,0.17188-0.26465,0.14941
	c-0.10449-0.02051-0.18066-0.1084-0.18652-0.21484L91.3335,36.6748c-0.125,0.09863-0.24902,0.19629-0.37207,0.29492l0.65527,0.97949
	l0.04688,0.06738l0.13672,0.02734c0.00879-0.01758,0.01855-0.0332,0.03125-0.04688c0.05273-0.06641,0.13965-0.09766,0.22266-0.08105
	c0.08496,0.0166,0.15234,0.07715,0.17773,0.15918c0.01172,0.03711,0.01367,0.0752,0.00586,0.11328
	c-0.02539,0.12598-0.14746,0.20703-0.27246,0.18457c-0.10547-0.02148-0.18262-0.11133-0.18848-0.2168l-0.18359-0.03516
	l-0.0127-0.01953l-0.71094-1.05957l-0.04004,0.03125l0.37305,0.55957l-0.00488,0.02148l-0.04395,0.22949
	c0.09473,0.04492,0.14746,0.14941,0.12695,0.25391c-0.02441,0.12598-0.14746,0.20703-0.27246,0.18164
	c-0.12598-0.02344-0.20801-0.14648-0.18359-0.27148c0.02148-0.10449,0.10938-0.18164,0.21484-0.1875l0.04004-0.2041l-0.3418-0.50977
	c-0.37793,0.30371-0.74707,0.60742-1.1084,0.91113l-0.10449,0.52441l0.63477,0.94629l0.17773,0.03516
	c0.04492-0.09375,0.14941-0.14746,0.25391-0.12695c0.11914,0.02344,0.2002,0.13477,0.18457,0.25391
	c-0.00098,0.00684-0.00098,0.01367-0.00293,0.02051c-0.00781,0.04297-0.03027,0.08496-0.0625,0.11621
	C90.7085,39.83105,90.70361,39.83496,90.69971,39.83691z M89.43896,40.52441c0.38379-0.21777,0.77148-0.42871,1.16113-0.63477
	c-0.0332,0.00781-0.06738,0.00781-0.09863,0.00195c-0.03418-0.00586-0.06543-0.01855-0.09277-0.03906
	c-0.03516-0.02539-0.06152-0.06055-0.07812-0.10059c-0.00977-0.02441-0.01562-0.04785-0.01758-0.07422l-0.22266-0.04395
	l-0.1709-0.25488l-0.51758-0.77246l0.00391-0.02344l0.08105-0.40723c-0.02637,0.02148-0.05176,0.04395-0.07812,0.06445
	l-0.09961,0.50781l0.49414,0.73828l0.10059,0.15137c0.03613-0.00684,0.07422-0.00684,0.11328,0l0,0
	c0.03613,0.00684,0.07129,0.02344,0.10156,0.04492c0.02637,0.01953,0.05078,0.04199,0.06836,0.07031
	c0.00586,0.00879,0.01172,0.01953,0.0166,0.03125c0.02246,0.04102,0.03125,0.08691,0.0293,0.13379
	c-0.00098,0.0127-0.00195,0.02539-0.00586,0.04199l0.00098-0.00098c-0.01367,0.06934-0.05469,0.13086-0.11523,0.1709
	c-0.05957,0.04004-0.13281,0.05469-0.20703,0.04102h0.00195c-0.07031-0.01465-0.13281-0.05469-0.17188-0.11523
	c-0.04004-0.05957-0.05469-0.13379-0.04199-0.2041l0.00098-0.00195l0.00098-0.00098
	c0.00195-0.01172,0.00488-0.02344,0.00977-0.03613c0.01562-0.04297,0.04199-0.08301,0.07715-0.1123
	c0.00391-0.00488,0.00879-0.00879,0.01465-0.0127l-0.02832-0.04395l-0.00488-0.00684l-0.10156-0.15137l-0.46484-0.69141
	l-0.0127-0.02051L89.18994,38.75l0.07715-0.38867c-0.12695,0.1084-0.25195,0.21387-0.37695,0.32129l-0.06152,0.3125l0.50684,0.75684
	l0.01465,0.01953l-0.00488,0.02441L89.25537,40.25L89.43896,40.52441z M88.86182,40.85449
	c0.11523-0.06641,0.23047-0.13379,0.3457-0.19922l-0.11523-0.1748l-0.11719-0.17383l-0.01465-0.01855l0.08008-0.40723
	l-0.19336-0.29004l-0.18945,0.95898L88.86182,40.85449z M86.33447,42.4375c0.46582-0.31055,0.9375-0.61328,1.41016-0.90625
	l-0.18262-0.27344c-0.05371,0.02637-0.11328,0.03516-0.16992,0.02441h-0.00684l-0.00195-0.00195
	c-0.06836-0.01562-0.12793-0.05664-0.16797-0.11523c-0.03906-0.05957-0.05371-0.13184-0.04004-0.20508h0.00098
	c0.01465-0.07129,0.05566-0.13086,0.11426-0.1709c0.06055-0.04102,0.13281-0.05566,0.2041-0.04102
	c0.07129,0.01367,0.13184,0.05469,0.17285,0.11523c0.04004,0.05957,0.05469,0.13379,0.04004,0.20215v0.00488l0,0
	c-0.00977,0.04199-0.02637,0.08105-0.05469,0.11426l0.19238,0.28418c0.30273-0.18848,0.6084-0.37305,0.91699-0.55469
	l-0.22852-0.33887l0.25293-1.28125l0.37793,0.5625l-0.00391,0.02344l-0.07617,0.38184l0.22461,0.33594l0.02734-0.01562
	l-0.20508-0.30859L89.13623,40.25l0.08984-0.45312l-0.50684-0.75586l-0.01465-0.02051l0.04297-0.21484
	c-0.65625,0.56836-1.2832,1.13379-1.87793,1.69531l-0.03613,0.18262c0.08789,0.04199,0.1416,0.13672,0.12891,0.23438
	c0,0.00684-0.00098,0.01367-0.00195,0.01953c-0.02441,0.12598-0.14746,0.20703-0.27148,0.18457
	c-0.12598-0.02637-0.20801-0.14746-0.18457-0.27246c-0.16211,0.15527-0.32227,0.31152-0.47754,0.46777h0.00098
	c0.00586,0.00781,0.00977,0.01465,0.01465,0.02246c0.03613,0.05176,0.05273,0.11816,0.04492,0.18066
	c0,0.00879-0.00195,0.01562-0.00391,0.02539l0,0c-0.00781,0.04199-0.02637,0.08008-0.05273,0.11328l0.35254,0.52832
	l-0.00391,0.02344L86.33447,42.4375z M85.85693,42.75977c0.1123-0.07715,0.22656-0.1543,0.3418-0.23047l0.0625-0.31738
	l-0.32031-0.47754c-0.05371,0.02539-0.1123,0.03418-0.16895,0.02441l-0.00684,0.00195l-0.00586-0.00488
	c-0.04297-0.00781-0.08203-0.02832-0.11719-0.05566v-0.00098c-0.02539,0.02441-0.05078,0.05176-0.07617,0.0791l0.35938,0.53711
	l0.01465,0.01953L85.85693,42.75977z M82.73486,45.01562c0.98242-0.74902,1.97461-1.47363,2.98242-2.16309l0.09863-0.49121
	l-0.33301-0.49805c-0.0293,0.0293-0.05957,0.06055-0.08789,0.09082c0.00488,0.00098,0.00879,0.00195,0.01367,0.00293
	c0.12598,0.02441,0.20801,0.14648,0.18262,0.27148c-0.02441,0.12598-0.14648,0.20801-0.27246,0.18359
	c-0.09668-0.01953-0.16797-0.09473-0.18457-0.19043C84.22705,43.17285,83.42334,44.10645,82.73486,45.01562z"/>
<path fill-rule="evenodd" clip-rule="evenodd" fill="#CA0632" d="M82.51416,48.44727
	c7.10352,7.0957,15.17676,12.61523,26.83789,12.31836C113.146,70.90332,121.23486,78.61133,131.65576,85
	C114.45068,79.74219,89.57666,60.95312,82.51416,48.44727"/>
<path fill-rule="evenodd" clip-rule="evenodd" fill="#F39100" d="M105.44775,44.15039
	c-0.77637-0.47949-1.65527-0.93848-2.61426-1.35742c0.12891,1.15137,0.19727,2.375,0.19531,3.64551
	c0,0.15234-0.00098,0.30371-0.00391,0.4541C103.9751,45.96582,104.79248,45.03613,105.44775,44.15039 M97.97705,50.22656
	c-1.23242-0.34473-2.40039-0.74512-3.48145-1.18066c0.16211,1.15527,0.40039,2.22754,0.69922,3.18066
	c1.09082-0.43359,2.26758-1.04785,3.45996-1.81836C98.43018,50.35059,98.20264,50.29102,97.97705,50.22656z M99.99658,44.86523
	c0.57324,0.75,0.42383,1.82227-0.33496,2.39062c-0.75781,0.56738-1.83691,0.41895-2.41016-0.33301s-0.42285-1.82129,0.33398-2.38965
	C98.34521,43.96387,99.42432,44.11328,99.99658,44.86523z M97.35693,56.03906L97.35693,56.03906
	c0.39844,0.17676,0.79492,0.34863,1.18555,0.51367c0.05762,0.00391,0.11426,0.00488,0.17188,0.00293
	c1.54395-0.06055,2.79883-2.28711,3.35352-5.51074c-0.83203-0.09668-1.7002-0.24414-2.59082-0.44238
	c-1.41211,0.9043-2.81543,1.62012-4.11816,2.12402C95.89404,54.24805,96.58545,55.41113,97.35693,56.03906z M92.34326,53.53516
	c1.27246,0.70801,2.57324,1.37207,3.86328,1.97656l-0.03809-0.01855c-0.41699-0.72363-0.78223-1.62695-1.07715-2.66504
	C94.09717,53.19531,93.16748,53.43359,92.34326,53.53516z M89.78857,52.03125L89.78857,52.03125
	c0.49414,0.30859,0.99805,0.6123,1.51074,0.91113c0.95312,0.1416,2.22461-0.08105,3.65625-0.62207
	c-0.25391-1.00586-0.44434-2.12109-0.55664-3.3125c-1.25195-0.51074-2.38477-1.07129-3.3584-1.65234
	C89.71436,49.2627,89.1958,50.99219,89.78857,52.03125z M87.29736,43.21777c-2.10449,0.87012-3.86523,1.75586-4.9873,2.56934
	c1.44141,1.89258,3.7832,3.82812,6.50098,5.61816c0.03223-1.15234,0.74512-2.6377,1.98047-4.20312
	C88.63721,45.87012,87.3208,44.43555,87.29736,43.21777z M88.34521,42.79688c-0.14941,0.05859-0.29395,0.11621-0.43848,0.17285
	C88.05127,42.91309,88.19678,42.85547,88.34521,42.79688z M101.17139,39.03613c-4.1748,0.83887-8.9502,2.25098-12.80957,3.75488
	c0.06152,1.09473,1.19922,2.40918,3.05273,3.66504c1.04297-1.18359,2.36133-2.39258,3.8916-3.51855
	c-1.48242,1.17676-2.73926,2.43457-3.69727,3.64941c0.79297,0.52148,1.70801,1.03223,2.7207,1.51172
	c-0.02637-0.43359-0.04199-0.87402-0.04688-1.32227c0.02148,0.45801,0.05566,0.90723,0.09961,1.34766
	c1.09473,0.51367,2.29785,0.99023,3.58203,1.40625c0.46875,0.15039,0.93262,0.28711,1.39062,0.40723
	c0.37793-0.2627,0.75586-0.54102,1.13184-0.83594c0.66895-0.52148,1.30078-1.05664,1.88867-1.59375
	c0.00488-0.41699-0.00098-0.84082-0.01855-1.27051c-0.05273-1.33789-0.1875-2.61719-0.38867-3.80176
	c-0.41309-0.16113-0.83984-0.31641-1.2793-0.46289c0.43359,0.12695,0.8584,0.2627,1.27051,0.40527
	c-0.21387-1.23145-0.49512-2.35547-0.83301-3.33301L101.17139,39.03613z M105.63525,38.34766
	c-1.08398,0.10254-2.28223,0.27832-3.55078,0.51172c0.32129,1.13184,0.57422,2.42676,0.73633,3.83398
	c1.00488,0.38477,1.93359,0.8125,2.76562,1.26562c1.52441-2.12402,2.09473-3.98633,1.31641-4.96582
	C106.62354,38.63965,106.18994,38.42773,105.63525,38.34766z M107.26611,45.00293c0.75586-1.87793,2.01758-3.65039,3.77051-5.32422
	c-0.05371-1.22266-1.97168-1.58398-4.81152-1.37891c0.85254,0.04492,1.5,0.30859,1.86523,0.81152
	c0.80176,1.09668,0.0957,3.0957-1.66016,5.33887C106.72412,44.63086,107.00342,44.81738,107.26611,45.00293z M106.48975,50.48438
	c-0.17383-1.78809,0.04395-3.49707,0.63965-5.12695c-0.26953-0.22852-0.56445-0.45508-0.88184-0.67871
	c-0.87012,1.0752-1.97363,2.2002-3.2627,3.30469c-0.05078,0.90137-0.14551,1.76758-0.27734,2.58203
	C104.15576,50.7207,105.45264,50.69043,106.48975,50.48438z M106.51904,50.75586c-0.00879-0.07422-0.0166-0.14844-0.02344-0.2207
	C106.50244,50.60742,106.51025,50.68164,106.51904,50.75586z M109.33154,58.12109c-1.5459-2.49121-2.46191-4.85449-2.77734-7.09375
	c-1.12012,0.18164-2.46289,0.20898-3.94141,0.07324c-0.54395,2.90039-1.57617,5.11035-2.83008,5.95605
	C104.94775,59.08301,109.18408,59.82031,109.33154,58.12109z M100.71924,49.76074c0.56543-0.4082,1.10742-0.82324,1.62598-1.24219
	c-0.03613,0.68848-0.10156,1.35059-0.19043,1.98145c-0.63672-0.08691-1.29883-0.20605-1.97754-0.36035
	C100.35791,50.01465,100.53857,49.88965,100.71924,49.76074z"/>
<path fill-rule="evenodd" clip-rule="evenodd" fill="#0D3174" d="M85.01611,34.88672
	c-0.47754,1.08203-0.91113,2.1377-1.29102,3.16016l0.0166-0.04199c0.06055,0.02734,0.11914,0.0625,0.17188,0.1084
	c0.00879,0.00781,0.01758,0.0166,0.02539,0.02441l0.81055-0.58008c-0.39746-0.72168-0.32617-1.64258,0.24902-2.2998
	c0.06152-0.07324,0.12793-0.13867,0.2002-0.19922L85.01611,34.88672z M87.11377,30.5498
	c-0.71191,1.3623-1.36426,2.70117-1.94922,4.00586l0.31152,0.29785c0.55371-0.33496,1.23633-0.39062,1.83496-0.15039
	l0.95898-2.15137c-0.13477-0.07227-0.26465-0.16211-0.38672-0.26562C87.35693,31.83398,87.09521,31.19043,87.11377,30.5498z
	 M91.52002,22.97266c-0.61035,0.95703-1.20215,1.91504-1.77246,2.87012l0.84375-0.2832
	c-0.20898-0.41016-0.16113-0.9209,0.16113-1.29004c0.19727-0.22852,0.4668-0.3623,0.74707-0.39648L91.52002,22.97266z
	 M92.7085,21.15527c-0.11328,0.16895-0.22559,0.33887-0.33789,0.50879L92.7085,21.15527z M93.19189,20.43555
	c-0.12012,0.17676-0.23828,0.35352-0.35547,0.52832L93.19189,20.43555z M95.89404,16.61426
	c-0.54199,0.73535-1.07617,1.47754-1.60059,2.22559c0.27539-0.09863,0.58887-0.06543,0.84082,0.10938l1.27734-1.90039
	c-0.10254-0.06152-0.19922-0.12988-0.29199-0.20898C96.03857,16.76953,95.9624,16.69336,95.89404,16.61426z M97.65869,14.28809
	c-0.13965,0.17969-0.2793,0.35938-0.41797,0.53906C97.37939,14.64746,97.51904,14.46777,97.65869,14.28809z M98.19287,13.60742
	c-0.12793,0.16113-0.25488,0.32324-0.38184,0.48535C97.93799,13.93066,98.06494,13.76855,98.19287,13.60742z M103.42822,7.50293
	c-0.69727,0.74609-1.3916,1.51367-2.08105,2.30469l0.35156-0.39941l1.875-1.16699c-0.13379-0.21973-0.1875-0.47363-0.16113-0.72266
	L103.42822,7.50293z M104.51514,6.35938l-0.1543,0.15918l0.03125-0.03125c0.04395-0.00781,0.08691-0.01172,0.13086-0.01367
	L104.51514,6.35938z M104.25537,11.28223c0.81348-1.6543,1.74316-3.28711,2.77637-4.90234
	c-0.24902-0.50293-0.18848-1.12402,0.2041-1.57422c0.30566-0.35254,0.74609-0.52051,1.18066-0.49512
	c1.01465-1.45117,2.1084-2.88867,3.27246-4.31055c-2.23828,1.63281-4.55176,3.69043-6.85449,6.0332l0.03516,0.47363
	c0.17383,0.04199,0.34082,0.125,0.48535,0.25c0.49219,0.42188,0.5459,1.16016,0.12012,1.64746
	c-0.42676,0.48828-1.16992,0.54199-1.66211,0.11914l-0.01953-0.01758l-2.32324,1.44531c0.17188,0.25,0.2373,0.55469,0.18848,0.84668
	l1.59473,0.74805C103.50928,11.25391,103.90967,11.16211,104.25537,11.28223z M102.67139,14.93066
	c0.25098-0.66797,0.52344-1.33203,0.81348-1.99414c-0.04785-0.02832-0.09473-0.05957-0.13867-0.09863
	c-0.29492-0.25391-0.38867-0.65234-0.26562-0.99902l-1.52539-0.71289c-0.04395,0.08691-0.10059,0.17188-0.16699,0.24902
	c-0.11133,0.12598-0.24316,0.22266-0.38672,0.29102l0.48535,2.16699c0.19629,0.02051,0.38867,0.09766,0.54785,0.23633
	c0.2334,0.2002,0.35156,0.48633,0.34473,0.77148L102.67139,14.93066z M101.29834,19.44238
	c0.32812-1.41406,0.74902-2.80957,1.25488-4.19238l-0.24219-0.07422c-0.04004,0.10254-0.09766,0.19922-0.1748,0.28711
	c-0.36035,0.41211-0.99023,0.45801-1.40625,0.10059c-0.41602-0.35645-0.46191-0.98145-0.10156-1.39453
	c0.13965-0.16016,0.32031-0.26562,0.51367-0.3125l-0.4707-2.08984c-0.2832,0.04102-0.58301-0.01953-0.83496-0.1875
	c-0.51367,0.61816-1.02246,1.24707-1.52832,1.88281c0.17188,0.0791,0.33691,0.18262,0.4873,0.31055
	c0.85449,0.7334,0.94629,2.01367,0.20703,2.86035c-0.05469,0.06445-0.11328,0.12402-0.17773,0.18066l1.11523,1.00195
	c0.31641-0.1377,0.69922-0.09375,0.97559,0.14551c0.37207,0.31738,0.42578,0.86328,0.13379,1.24512L101.29834,19.44238z
	 M101.24365,19.67188l0.04395-0.18848C101.27197,19.54785,101.2583,19.60938,101.24365,19.67188z M96.09717,27.80273
	c1.34277-0.69238,2.7959-1.29102,4.37109-1.79199c0.00977-0.53418,0.03516-1.06543,0.07227-1.59375
	c-0.25391,0.26953-0.67871,0.29199-0.96289,0.0498c-0.29004-0.25098-0.32227-0.68555-0.07031-0.97461
	s0.69141-0.32031,0.98145-0.07129c0.00879,0.00781,0.01855,0.01758,0.02637,0.02539l0.11914-0.08594
	c0.12598-1.18848,0.31934-2.36621,0.57617-3.53027l-0.41602-0.39551c-0.33496,0.2002-0.77344,0.17578-1.08496-0.08984
	c-0.38574-0.33105-0.42773-0.9082-0.09375-1.29102c0.01172-0.0127,0.02441-0.02637,0.03516-0.04004l-1.10352-0.99219
	c-0.54688,0.3418-1.22559,0.40625-1.82617,0.17676l-1.34277,2c0.14941,0.22461,0.19043,0.50391,0.11523,0.75781l1.55078,1.00293
	c0.44531-0.49219,1.20508-0.54004,1.70898-0.10742c0.5127,0.43945,0.56738,1.2041,0.12695,1.71191
	c-0.44238,0.50586-1.21582,0.56152-1.72461,0.125c-0.42871-0.36816-0.53809-0.96777-0.30176-1.44922l-1.51758-0.97949
	c-0.00879,0.0127-0.01953,0.02734-0.03125,0.03809c-0.33398,0.38281-0.91602,0.42383-1.30078,0.09277
	c-0.20801-0.17676-0.31641-0.42578-0.32031-0.67676c-0.16016,0.2334-0.31934,0.46582-0.47754,0.70117
	c0.00586,0.31934-0.09766,0.6416-0.30859,0.91016l1.35938,1.1123c0.25684-0.21582,0.63965-0.21973,0.90234,0.00586
	c0.29102,0.25,0.32324,0.68457,0.07031,0.97363c-0.25098,0.28809-0.68945,0.32031-0.98047,0.07129
	c-0.23145-0.19824-0.29785-0.50977-0.19336-0.77637l-1.40137-1.14453c-0.10938,0.08496-0.22852,0.15234-0.35352,0.2041
	c-0.14258,0.21484-0.28516,0.43164-0.42285,0.64746l-0.03613,1.46191c0.2041,0.03516,0.40332,0.12402,0.57227,0.26953
	c0.33398,0.28711,0.46582,0.7207,0.38086,1.12305l1.55859,0.54688c0.04199-0.08105,0.09473-0.15723,0.15625-0.22754
	c0.4248-0.4873,1.16992-0.54199,1.66211-0.12012s0.5459,1.16016,0.12109,1.64746c-0.0791,0.0918-0.16895,0.16602-0.26562,0.22656
	L96.09717,27.80273z M95.82178,27.94629l0.22461-0.11816C95.97119,27.86719,95.89697,27.90625,95.82178,27.94629z M91.56982,30.7627
	c0.57715-0.4707,1.18066-0.92188,1.81055-1.34863l-0.15039-0.4668c-0.20996,0.05176-0.44043,0.00293-0.61719-0.14844
	c-0.29004-0.24902-0.32227-0.68652-0.07031-0.97461c0.25098-0.28906,0.69043-0.31934,0.98145-0.06934
	s0.32227,0.68359,0.07129,0.97266c-0.01758,0.02246-0.03711,0.04102-0.05664,0.05957l0.13672,0.42871
	c0.66895-0.44141,1.36914-0.85645,2.10059-1.24512l-0.07324-0.48438c-0.36426,0.0957-0.7666,0.0166-1.07129-0.24609
	c-0.32812-0.28125-0.46191-0.70508-0.38672-1.09863l-1.56641-0.54883c-0.04004,0.07129-0.08789,0.14062-0.14355,0.20605
	c-0.42676,0.48633-1.1709,0.54102-1.66309,0.11816c-0.02441-0.02148-0.0498-0.0459-0.07227-0.06836l-1.31641,0.44141
	l0.22266-0.37695c-0.57715,0.9707-1.13184,1.93848-1.66016,2.89941c0.81836-0.58105,1.96191-0.55469,2.75781,0.12598
	C91.35303,29.41211,91.61377,30.09277,91.56982,30.7627z M87.74561,34.56836c0.5-0.60059,1.02344-1.18262,1.57129-1.74316
	c-0.24902-0.00195-0.49805-0.04688-0.73535-0.13281L87.74561,34.56836z M82.14209,43.59375
	c0.22168-0.45898,0.44824-0.91309,0.67773-1.36328c-0.01172-0.22754,0.0625-0.46094,0.22461-0.64648
	c0.06055-0.06934,0.12988-0.12695,0.20312-0.17383c0.60547-1.1377,1.24512-2.24609,1.93164-3.31641
	c-0.08789-0.0791-0.16895-0.16406-0.23926-0.25293l-0.81836,0.58496c0.07129,0.2207,0.02637,0.47266-0.13672,0.66211
	c-0.18066,0.20605-0.45508,0.28125-0.7041,0.21582l0.01953-0.05957C82.7749,40.79688,82.38428,42.25781,82.14209,43.59375z"/>
<path fill-rule="evenodd" clip-rule="evenodd" fill="#CA0632" d="M102.97705,84.69531
	c-4.30273-5.06738-7.50195-10.67773-6.61816-18.29199c-6.52441-3.08105-11.17773-8.83008-14.81641-16.02637
	C84.02979,61.94922,95.07275,79.33691,102.97705,84.69531"/>
<path fill-rule="evenodd" clip-rule="evenodd" fill="#CA0632" d="M87.48779,71.72852
	c-5.46777-8.53906-7.18164-17.75977-6.40137-27.43555c0,0-1.4834,1.41895-2.17188,1.45703
	C77.91846,52.97754,82.27783,67.21973,87.48779,71.72852"/>
<path fill-rule="evenodd" clip-rule="evenodd" fill="#CA0632" d="M76.53271,35.58008c1.6084,2.51172,2.1123,5.22266,1.88184,8.06934
	c0,0,0.4375-0.41699,0.63965-0.42871C79.34717,41.0957,78.06592,36.90723,76.53271,35.58008"/>
<path fill-rule="evenodd" clip-rule="evenodd" fill="#CA0632" d="M82.63818,35.15039
	c-1.64453,2.4873-2.1875,5.19238-1.99902,8.04102c0,0-0.42871-0.42383-0.63184-0.4375
	C79.74463,40.62402,81.0874,36.45312,82.63818,35.15039"/>
<path fill="#0D3174" d="M76.49951,70.42773c0-0.22656-0.11719-0.33691-0.32227-0.33691h-5.64258
	c-3.09766,0-3.5957-0.78613-3.5957-2.9209v-4.71484h8.97559c0.32324,0,0.58496-0.25293,0.58496-0.5625v-1.06641
	c0-0.30859-0.26172-0.56152-0.58496-0.56152h-8.97559v-3.90137c0-2.13281,0.49805-2.91895,3.5957-2.91895h5.64258
	c0.20508,0,0.32227-0.1123,0.32227-0.33789v-1.40332c0-0.19629-0.08789-0.36426-0.29199-0.39355
	c-1.22754-0.13965-3.97656-0.16797-5.70117-0.16797c-4.12402,0-6.22754,1.48828-6.22754,5.22168v10.80664
	c0,3.7334,2.10352,5.22168,6.22754,5.22168c1.69531,0,4.61914,0,5.70117-0.13965c0.2041-0.02832,0.29199-0.19629,0.29199-0.39453
	V70.42773z M61.89209,70.37109c0-0.30957-0.2627-0.47754-0.58496-0.47754H50.81104c-0.20605,0-0.29297-0.05566-0.29297-0.16797
	c0-0.08496,0.03027-0.16797,0.08691-0.25293l10.44043-14.625c0.32031-0.42188,0.46582-1.12305,0.46582-1.65625
	c0-1.54395-0.84766-1.85254-2.48438-1.85254H48.6167c-0.32031,0-0.58398,0.16797-0.58398,0.47656v1.31934
	c0,0.30957,0.26367,0.47754,0.58398,0.47754h9.70801c0.2041,0,0.29297,0.05566,0.29297,0.19629
	c0,0.05664-0.0293,0.14062-0.08887,0.22461l-10.4668,14.625c-0.32129,0.4209-0.43945,1.15039-0.43945,1.62891
	c0,1.4873,0.55664,1.90723,2.42773,1.90723h11.25684c0.32227,0,0.58496-0.19531,0.58496-0.50488V70.37109z M43.30713,66.44141
	c0,3.03125-2.25098,3.78906-5.87598,3.78906c-1.02441,0-2.07617-0.08398-3.04004-0.1123v-7.71973h4.50195
	c3.44922,0,4.41406,1.68457,4.41406,3.56445V66.44141z M43.19189,57.00977c0,1.79688-0.90625,3.33984-4.29883,3.33984h-4.50195
	V53.3877c0.81836-0.02832,1.87012-0.08398,2.89355-0.08398c3.56738,0,5.90723,0.56152,5.90723,3.25684V57.00977z M45.96924,65.96289
	c0-2.16113-1.22852-3.87305-3.24609-4.54688c1.98828-0.75781,3.12988-2.30176,3.12988-4.40625v-0.44922
	c0-4.23828-3.91992-5.41895-8.56836-5.41895c-1.89941,0-3.68359,0.11328-4.64844,0.22559
	c-0.61426,0.05566-0.93555,0.3916-0.93555,1.03809v18.69531c0,0.70215,0.29199,0.95508,0.96387,1.03809
	c1.1416,0.19824,2.80859,0.25293,4.7666,0.25293c4.56152,0,8.53809-1.23535,8.53809-5.9502V65.96289z M29.25732,70.42773
	c0-0.22656-0.11816-0.33691-0.32324-0.33691H23.2915c-3.09912,0-3.59668-0.78613-3.59668-2.9209v-4.71484h8.97754
	c0.32129,0,0.58496-0.25293,0.58496-0.5625v-1.06641c0-0.30859-0.26367-0.56152-0.58496-0.56152h-8.97754v-3.90137
	c0-2.13281,0.49756-2.91895,3.59668-2.91895h5.64258c0.20508,0,0.32324-0.1123,0.32324-0.33789v-1.40332
	c0-0.19629-0.08887-0.36426-0.29297-0.39355c-1.22949-0.13965-3.97656-0.16797-5.70215-0.16797
	c-4.12256,0-6.22754,1.48828-6.22754,5.22168v10.80664c0,3.7334,2.10498,5.22168,6.22754,5.22168
	c1.69531,0,4.61914,0,5.70215-0.13965c0.2041-0.02832,0.29297-0.19629,0.29297-0.39453V70.42773z M13.91797,61.9209
	c0-0.30859-0.23486-0.56152-0.55615-0.56152H11.7832c-0.32178,0-0.52686,0.25293-0.52686,0.56152v8.02832
	c-0.70117,0.08398-1.8999,0.16895-3.68359,0.16895c-2.71924,0-4.91211-1.8252-4.91211-6.45605v-3.76172
	c0-5.05273,2.45654-6.45605,5.17529-6.45605c2.51465,0,3.83008,0.05469,5.55518,0.19531h0.11719
	c0.26318,0,0.37939-0.08301,0.37939-0.28027v-1.40332c0-0.30859-0.2334-0.39355-0.49658-0.4209
	c-1.14014-0.19629-2.83594-0.39355-5.55518-0.39355C4.09326,51.1416,0,53.0791,0,59.90039v3.76172
	c0,6.42871,3.91846,8.72949,7.57275,8.72949c2.77783,0,4.38574-0.19727,5.81836-0.4209
	c0.35107-0.05469,0.52686-0.25293,0.52686-0.61719V61.9209z"/>
<path fill="#0D3174" d="M76.46631,76.66699c0-0.09668-0.07324-0.16699-0.16504-0.16699h-0.74512
	c-0.0918,0-0.16504,0.07031-0.16504,0.16699v0.83691c0,0.09766,0.07324,0.17773,0.16504,0.17773h0.74512
	c0.0918,0,0.16504-0.08008,0.16504-0.17773V76.66699z M76.49951,78.5459c0-0.09668-0.0752-0.16797-0.16602-0.16797h-0.81934
	c-0.09082,0-0.16504,0.07129-0.16504,0.16797v6.20703c0,0.09766,0.07422,0.17676,0.16504,0.17676h0.81934
	c0.09082,0,0.16602-0.0791,0.16602-0.17676V78.5459z M74.771,83.15723c0-0.70508-0.24121-1.25195-1.15234-1.79883l-0.99219-0.59082
	c-0.53027-0.33496-0.68066-0.48438-0.68066-0.78516c0-0.39648,0.24902-0.62598,0.87012-0.62598
	c0.53711,0,1.07617,0.02832,1.63086,0.08887h0.01758c0.09082,0,0.14062-0.06055,0.14062-0.15918v-0.65234
	c0-0.09766-0.05859-0.1416-0.15039-0.16699c-0.28125-0.07031-1.04199-0.15918-1.58887-0.15918
	c-1.53906,0-2.06934,0.70605-2.06934,1.6748c0,0.62695,0.21582,1.12891,0.97559,1.61328l1.09375,0.69824
	c0.55469,0.35156,0.7041,0.51074,0.7041,0.86328c0,0.52051-0.22461,0.79492-0.96191,0.79492
	c-0.29688,0-1.13281-0.04492-1.46387-0.08887h-0.0166c-0.09082,0-0.15723,0.07031-0.15723,0.16797v0.63379
	c0,0.09668,0.06641,0.15039,0.15723,0.17578C71.5249,84.93945,71.96338,85,72.59229,85C74.24951,85,74.771,84.04785,74.771,83.15723
	z M70.34131,84.12793c0-0.09668-0.0752-0.17578-0.16504-0.17578h-1.68945c-0.48926,0-0.6543-0.16797-0.6543-0.75977v-1.1377h2.24414
	c0.0918,0,0.16406-0.08008,0.16406-0.17578v-0.63477c0-0.09766-0.07227-0.17676-0.16406-0.17676h-2.24414v-0.95215
	c0-0.59082,0.16504-0.75879,0.6543-0.75879h1.68945c0.08984,0,0.16504-0.0791,0.16504-0.17578v-0.56445
	c0-0.13281-0.04102-0.15918-0.16504-0.18457c-0.26562-0.04395-0.58789-0.12402-1.57324-0.12402
	c-1.07715,0-1.91211,0.2998-1.91211,1.80762v3.07715c0,1.50879,0.83496,1.80762,1.91211,1.80762
	c0.98535,0,1.30762-0.08008,1.57324-0.12402c0.12402-0.02539,0.16504-0.05273,0.16504-0.18457V84.12793z M66.27686,78.5459
	c0-0.09668-0.07617-0.16797-0.16602-0.16797h-4.04883c-0.09082,0-0.16602,0.07129-0.16602,0.16797v0.69531
	c0,0.09766,0.0752,0.15918,0.16602,0.15918h1.44922v5.35254c0,0.09766,0.0752,0.17676,0.16602,0.17676h0.81934
	c0.09082,0,0.16504-0.0791,0.16504-0.17676v-5.35254h1.44922c0.08984,0,0.16602-0.06152,0.16602-0.15918V78.5459z
	 M61.45068,76.66699c0-0.09668-0.07422-0.16699-0.16602-0.16699h-0.74512c-0.0918,0-0.16504,0.07031-0.16504,0.16699v0.83691
	c0,0.09766,0.07324,0.17773,0.16504,0.17773h0.74512c0.0918,0,0.16602-0.08008,0.16602-0.17773V76.66699z M61.48291,78.5459
	c0-0.09668-0.07422-0.16797-0.16602-0.16797h-0.81934c-0.0918,0-0.16504,0.07129-0.16504,0.16797v6.20703
	c0,0.09766,0.07324,0.17676,0.16504,0.17676h0.81934c0.0918,0,0.16602-0.0791,0.16602-0.17676V78.5459z M59.75342,83.15723
	c0-0.70508-0.24023-1.25195-1.15137-1.79883l-0.99316-0.59082c-0.53027-0.33496-0.67871-0.48438-0.67871-0.78516
	c0-0.39648,0.24902-0.62598,0.87012-0.62598c0.53711,0,1.0752,0.02832,1.62988,0.08887h0.0166
	c0.0918,0,0.14062-0.06055,0.14062-0.15918v-0.65234c0-0.09766-0.05859-0.1416-0.14941-0.16699
	c-0.28125-0.07031-1.04297-0.15918-1.58887-0.15918c-1.53906,0-2.06934,0.70605-2.06934,1.6748
	c0,0.62695,0.21484,1.12891,0.97559,1.61328l1.09375,0.69824c0.55469,0.35156,0.7041,0.51074,0.7041,0.86328
	c0,0.52051-0.22461,0.79492-0.96094,0.79492c-0.29785,0-1.13477-0.04492-1.46484-0.08887h-0.01758
	c-0.09082,0-0.15625,0.07031-0.15625,0.16797v0.63379c0,0.09668,0.06543,0.15039,0.15625,0.17578
	C56.5083,84.93945,56.94678,85,57.57568,85C59.23096,85,59.75342,84.04785,59.75342,83.15723z M54.16455,80.38086
	c0,0.77344-0.37988,1.02051-1.24121,1.02051c-0.13184,0-0.60352-0.02441-0.7373-0.02441v-1.98438
	c0.15039-0.02637,0.55664-0.03613,0.7373-0.03613c0.82715,0,1.24121,0.27441,1.24121,0.94434V80.38086z M55.50537,84.82324
	c0-0.02637-0.00781-0.05176-0.01562-0.07031l-1.2998-2.57422c0.68652-0.2832,1.11816-0.85645,1.11816-1.79785v-0.08008
	c0-1.50781-1.10938-1.99316-2.38477-1.99316c-0.60352,0-1.19238,0.04492-1.62207,0.11523
	c-0.16602,0.02637-0.26465,0.08789-0.26465,0.26367v6.06641c0,0.09766,0.07324,0.17676,0.16504,0.17676h0.82715
	c0.0918,0,0.15723-0.0791,0.15723-0.17676v-2.38867c0.19043,0.00879,0.51465,0.03418,0.7373,0.03418h0.11621l1.19238,2.35449
	c0.04102,0.09766,0.07324,0.17676,0.16504,0.17676h1.01074C55.47412,84.92969,55.50537,84.89355,55.50537,84.82324z
	 M50.3335,84.12793c0-0.09668-0.0752-0.17578-0.16602-0.17578h-1.68945c-0.48926,0-0.6543-0.16797-0.6543-0.75977v-1.1377h2.24414
	c0.0918,0,0.16504-0.08008,0.16504-0.17578v-0.63477c0-0.09766-0.07324-0.17676-0.16504-0.17676h-2.24414v-0.95215
	c0-0.59082,0.16504-0.75879,0.6543-0.75879h1.68945c0.09082,0,0.16602-0.0791,0.16602-0.17578v-0.56445
	c0-0.13281-0.04199-0.15918-0.16602-0.18457c-0.26562-0.04395-0.58789-0.12402-1.57324-0.12402
	c-1.07617,0-1.91211,0.2998-1.91211,1.80762v3.07715c0,1.50879,0.83594,1.80762,1.91211,1.80762
	c0.98535,0,1.30762-0.08008,1.57324-0.12402c0.12402-0.02539,0.16602-0.05273,0.16602-0.18457V84.12793z M46.27588,78.52832
	c0-0.09668-0.05762-0.15039-0.14941-0.15039h-0.87695c-0.0752,0-0.13281,0.07129-0.1582,0.15039l-1.19922,5.29883
	c-0.02441,0.10645-0.04102,0.1416-0.13281,0.1416c-0.09082,0-0.10742-0.03516-0.13281-0.1416l-1.2002-5.29883
	c-0.02441-0.0791-0.08203-0.15039-0.15723-0.15039h-0.87793c-0.09082,0-0.14844,0.05371-0.14844,0.15039
	c0,0.02637,0.00879,0.01758,0.00879,0.04297l1.3584,5.5293C42.80615,84.91211,43.40381,85,43.75928,85
	c0.35645,0,0.95215-0.08789,1.15039-0.89941l1.3584-5.5293C46.26807,78.5459,46.27588,78.55469,46.27588,78.52832z
	 M40.80322,76.66699c0-0.09668-0.07422-0.16699-0.16504-0.16699h-0.74512c-0.09082,0-0.16602,0.07031-0.16602,0.16699v0.83691
	c0,0.09766,0.0752,0.17773,0.16602,0.17773h0.74512c0.09082,0,0.16504-0.08008,0.16504-0.17773V76.66699z M40.83643,78.5459
	c0-0.09668-0.07324-0.16797-0.16406-0.16797h-0.82031c-0.09082,0-0.16602,0.07129-0.16602,0.16797v6.20703
	c0,0.09766,0.0752,0.17676,0.16602,0.17676h0.82031c0.09082,0,0.16406-0.0791,0.16406-0.17676V78.5459z M38.85791,78.5459
	c0-0.11426-0.0498-0.16797-0.15625-0.16797h-0.71289c-0.10645,0-0.15625,0.05371-0.15625,0.16797v4.6377
	c0,0.05273-0.01758,0.0791-0.04102,0.0791c-0.02637,0-0.05078-0.02637-0.06641-0.07031l-1.92969-4.53223
	c-0.09961-0.2373-0.19043-0.28223-0.36426-0.28223H34.5376c-0.19043,0-0.33203,0.15039-0.33203,0.35352v6.02148
	c0,0.09766,0.0752,0.17676,0.16602,0.17676h0.70312c0.09082,0,0.15918-0.0791,0.15918-0.17676v-4.43555
	c0-0.04395,0.01465-0.06934,0.04102-0.06934c0.02344,0,0.04883,0.02539,0.07324,0.06934l1.83789,4.29492
	c0.13184,0.31738,0.30566,0.31738,0.50586,0.31738h0.83594c0.19043,0,0.33008-0.14941,0.33008-0.35254V78.5459z M30.79541,76.88867
	c0-0.09766-0.08203-0.17676-0.17285-0.17676H30.0249c-0.09082,0-0.17383,0.0791-0.17383,0.17676v0.77539
	c0,0.09766,0.08301,0.17676,0.17383,0.17676h0.59766c0.09082,0,0.17285-0.0791,0.17285-0.17676V76.88867z M32.45068,76.88867
	c0-0.09766-0.08301-0.17676-0.17383-0.17676h-0.5957c-0.09082,0-0.17383,0.0791-0.17383,0.17676v0.77539
	c0,0.09766,0.08301,0.17676,0.17383,0.17676h0.5957c0.09082,0,0.17383-0.0791,0.17383-0.17676V76.88867z M33.41846,78.5459
	c0-0.09668-0.07324-0.16797-0.16504-0.16797h-0.81934c-0.09082,0-0.16602,0.07129-0.16602,0.16797v3.95898
	c0,1.01367-0.23047,1.48145-1.125,1.48145c-0.89355,0-1.12598-0.46777-1.12598-1.48145V78.5459
	c0-0.09668-0.0752-0.16797-0.16602-0.16797h-0.82031c-0.09082,0-0.16406,0.07129-0.16406,0.16797v3.95898
	C28.8667,84.375,29.81787,85,31.14307,85s2.27539-0.625,2.27539-2.49512V78.5459z M25.98584,84.85059
	c0-0.02734-0.0166-0.06152-0.04199-0.10645l-2.13574-3.19141l2.12012-2.91895c0.04102-0.05273,0.05762-0.09766,0.05762-0.1416
	c0-0.06934-0.04883-0.10449-0.1582-0.10449h-0.94238c-0.0918,0-0.14941,0.00879-0.19043,0.06934l-2.0293,2.90137v-2.80371
	c0-0.09766-0.07422-0.16699-0.16504-0.16699h-0.81934c-0.09082,0-0.16602,0.06934-0.16602,0.16699v6.19824
	c0,0.09766,0.0752,0.17676,0.16602,0.17676h0.81934c0.09082,0,0.16504-0.0791,0.16504-0.17676V81.8252l1.89648,3.00781
	c0.04199,0.06055,0.09961,0.09668,0.19043,0.09668h1.1084C25.94385,84.92969,25.98584,84.90332,25.98584,84.85059z
	 M20.65479,76.66699c0-0.09668-0.0752-0.16699-0.16602-0.16699h-0.74512c-0.09131,0-0.16553,0.07031-0.16553,0.16699v0.83691
	c0,0.09766,0.07422,0.17773,0.16553,0.17773h0.74512c0.09082,0,0.16602-0.08008,0.16602-0.17773V76.66699z M20.68701,78.5459
	c0-0.09668-0.07324-0.16797-0.16504-0.16797h-0.81982c-0.09082,0-0.16553,0.07129-0.16553,0.16797v6.20703
	c0,0.09766,0.07471,0.17676,0.16553,0.17676h0.81982c0.0918,0,0.16504-0.0791,0.16504-0.17676V78.5459z M18.70947,78.5459
	c0-0.11426-0.05029-0.16797-0.15771-0.16797h-0.71191c-0.10791,0-0.15723,0.05371-0.15723,0.16797v4.6377
	c0,0.05273-0.01709,0.0791-0.0415,0.0791s-0.04932-0.02637-0.06592-0.07031l-1.9292-4.53223
	c-0.09961-0.2373-0.18994-0.28223-0.36426-0.28223H14.3877c-0.19043,0-0.33105,0.15039-0.33105,0.35352v6.02148
	c0,0.09766,0.07471,0.17676,0.16553,0.17676h0.70361c0.09131,0,0.15771-0.0791,0.15771-0.17676v-4.43555
	c0-0.04395,0.0166-0.06934,0.0415-0.06934c0.02441,0,0.04883,0.02539,0.07422,0.06934l1.83789,4.29492
	c0.13184,0.31738,0.30615,0.31738,0.50439,0.31738h0.83691c0.19043,0,0.33105-0.14941,0.33105-0.35254V78.5459z M13.61768,84.85059
	c0-0.02734-0.0166-0.06152-0.04102-0.10645l-2.13623-3.19141l2.11914-2.91895c0.0415-0.05273,0.05811-0.09766,0.05811-0.1416
	c0-0.06934-0.04932-0.10449-0.15674-0.10449H12.5166c-0.09033,0-0.14844,0.00879-0.19043,0.06934l-2.02783,2.90137v-2.80371
	c0-0.09766-0.07422-0.16699-0.16553-0.16699H9.31348c-0.09131,0-0.16553,0.06934-0.16553,0.16699v6.19824
	c0,0.09766,0.07422,0.17676,0.16553,0.17676h0.81934c0.09131,0,0.16553-0.0791,0.16553-0.17676V81.8252l1.896,3.00781
	c0.04102,0.06055,0.09912,0.09668,0.19043,0.09668h1.10889C13.57666,84.92969,13.61768,84.90332,13.61768,84.85059z
	 M8.44434,84.12793c0-0.09668-0.0752-0.17578-0.16553-0.17578H6.58984c-0.48877,0-0.6543-0.16797-0.6543-0.75977v-1.1377H8.1792
	c0.09131,0,0.16553-0.08008,0.16553-0.17578v-0.63477c0-0.09766-0.07422-0.17676-0.16553-0.17676H5.93555v-0.95215
	c0-0.59082,0.16553-0.75879,0.6543-0.75879h1.68896c0.09033,0,0.16553-0.0791,0.16553-0.17578v-0.56445
	c0-0.13281-0.0415-0.15918-0.16553-0.18457c-0.26514-0.04395-0.58789-0.12402-1.57324-0.12402
	c-1.07666,0-1.91211,0.2998-1.91211,1.80762v3.07715C4.79346,84.70117,5.62891,85,6.70557,85
	c0.98535,0,1.30811-0.08008,1.57324-0.12402c0.12402-0.02539,0.16553-0.05273,0.16553-0.18457V84.12793z M4.37891,78.5459
	c0-0.09668-0.07471-0.16797-0.16553-0.16797H0.16553C0.07471,78.37793,0,78.44922,0,78.5459v0.69531
	c0,0.09766,0.07471,0.15918,0.16553,0.15918h1.44873v5.35254c0,0.09766,0.07422,0.17676,0.16553,0.17676h0.81934
	c0.09131,0,0.16553-0.0791,0.16553-0.17676v-5.35254h1.44873c0.09082,0,0.16553-0.06152,0.16553-0.15918V78.5459z"/>
</svg>
